<svg width="634" height="1417" viewBox="0 0 634 1417" fill="none" xmlns="http://www.w3.org/2000/svg">
<g clip-path="url(#clip0)">
<rect width="634" height="4139" transform="translate(0 -593)" fill="white"/>
<ellipse cx="-25.98" cy="240.554" rx="65.2548" ry="130.619" transform="rotate(13.4292 -25.98 240.554)" fill="#FFD32A"/>
<path d="M725.386 1156.74C761.182 1055.31 864.973 853.271 910.743 882.334L1104.3 1364.66C1084.14 1443.4 1037.83 1607.65 1013.83 1634.74C983.836 1668.62 759.791 1621 690.871 1525.04C631.373 1442.21 680.64 1283.52 725.386 1156.74Z" fill="url(#paint0_linear)"/>
<g clip-path="url(#clip1)">
<path opacity="0.1" d="M809.822 24.0887C852.526 71.8248 882.286 127.616 909.007 182.488C935.728 237.359 960.648 293.189 996.554 345.242C1019.65 378.728 1050.6 412.724 1085.53 424.251C1119.14 435.355 1147.11 422.757 1170.34 408.179C1187.82 397.24 1204.93 384.347 1211.03 363.218C1215.26 348.546 1213.83 330.963 1216.45 315.389C1225.51 261.234 1280.84 241.089 1336.57 237.75C1362.71 236.185 1390.04 237.203 1414.5 231.944C1438.95 226.685 1460.86 214.226 1468.87 191C1476.81 167.978 1470.15 137.333 1458.46 108.376C1434.71 49.5596 1391.71 -5.53958 1347.8 -57.4039C1250.57 -172.149 1144.19 -279.311 1038.05 -386.246C998.776 -425.807 959.326 -465.543 916.581 -500.565C892.822 -520.003 866.767 -538.621 840.787 -544.473C807.835 -551.945 779.869 -535.028 775.625 -505.136C768.529 -454.994 821.304 -384.892 805.573 -339.653C796.906 -314.755 769.411 -305.886 741.516 -303.774C681.698 -299.238 608.462 -317.184 567.487 -283.052C539.381 -259.603 533.71 -212.295 553.535 -166.172C574.32 -117.831 623.063 -69.6433 669.908 -63.7949C718.137 -57.8253 772.09 -18.0479 809.822 24.0887Z" fill="#FFC107"/>
</g>
<path d="M927.481 278.601C1008.06 342.211 1238.52 375.264 1262.03 467.982C1257.21 463.727 1315.11 578.052 1249.37 673.146C1166.19 793.482 997.907 695.534 878.555 835.598C822.877 900.937 724.342 858.582 670.694 809.264L669.829 808.229C624.982 754.623 494.31 598.426 511.558 454.173C527.206 323.307 607.689 195.432 664.027 161.842C665.09 151.609 724.927 118.693 927.481 278.601Z" fill="#FFF9E6"/>
<path d="M-92.3726 471.803C-36.4257 464.703 7.77349 527.646 22.8797 560.005L44.3028 731.161C5.1117 740.804 -79.0127 758.61 -101.981 752.696C-130.692 745.303 -228.508 621.744 -242.475 549.26C-246.095 495.434 -162.306 480.677 -92.3726 471.803Z" fill="url(#paint1_linear)"/>
<path d="M740.968 1326.6C754.162 1337.13 872.703 1452.26 873.791 1498.59L861.857 990.727C786.639 975.195 644.542 963.359 614.622 988.865C588.148 1011.43 594.84 1068.96 610.165 1095.09C616.043 1105.12 617.243 1130.07 616.657 1139.97C615.032 1167.44 601.633 1192.94 599.427 1199.8C589.884 1229.45 607.19 1270.75 657.468 1282.2C674.157 1286 714.579 1305.54 740.968 1326.6Z" fill="url(#paint2_linear)" fill-opacity="0.9"/>
</g>
<defs>
<linearGradient id="paint0_linear" x1="677.002" y1="1507.69" x2="1142.95" y2="1354.96" gradientUnits="userSpaceOnUse">
<stop stop-color="#030403"/>
<stop offset="1" stop-color="#030403" stop-opacity="0.6"/>
</linearGradient>
<linearGradient id="paint1_linear" x1="-244.015" y1="537.224" x2="99.4885" y2="672.991" gradientUnits="userSpaceOnUse">
<stop stop-color="#030403"/>
<stop offset="1" stop-color="#030403" stop-opacity="0.6"/>
</linearGradient>
<linearGradient id="paint2_linear" x1="890.071" y1="1258.61" x2="651.533" y2="1298.85" gradientUnits="userSpaceOnUse">
<stop stop-color="#FFBD3D"/>
<stop offset="1" stop-color="#FFD32A"/>
</linearGradient>
<clipPath id="clip0">
<rect width="634" height="4139" fill="white" transform="translate(0 -593)"/>
</clipPath>
<clipPath id="clip1">
<rect width="1000" height="653.175" fill="white" transform="translate(986.238 524.264) rotate(-122.225)"/>
</clipPath>
</defs>
</svg>
