<svg width="1181" height="734" viewBox="0 0 1181 734" fill="none" xmlns="http://www.w3.org/2000/svg">
<g clip-path="url(#clip0)">
<rect width="1181" height="734" fill="white"/>
<path d="M995.952 246.156C934.467 219.403 820.842 16.2414 798 -102.344L1290.8 -130L1333.95 12.2633L1206.95 100.156C1144.26 155.467 1122 301 995.952 246.156Z" fill="url(#paint0_linear)" fill-opacity="0.9"/>
<g clip-path="url(#clip1)">
<path opacity="0.1" d="M874.202 138.469C811.047 149.141 747.981 144.566 687.313 137.912C626.644 131.258 566.127 122.568 502.945 125.187C462.302 126.869 417.04 134.921 388.661 158.326C361.345 180.838 357.088 211.217 357.035 238.639C356.964 259.266 358.752 280.61 373.37 297.042C383.529 308.44 399.165 316.607 410.943 327.129C451.922 363.675 439.463 421.219 412.571 470.145C399.952 493.099 384.52 515.673 375.928 539.167C367.335 562.661 366.194 587.836 381.573 606.994C396.811 625.993 426.287 636.7 457.019 642.248C519.44 653.522 588.983 646.522 656.271 637.036C805.189 615.967 952.568 583.119 1099.63 550.352C1154.04 538.22 1208.69 526.035 1261.11 508.55C1290.23 498.816 1319.87 486.701 1338.67 467.844C1362.57 443.952 1363.17 411.273 1340.14 391.744C1301.51 359.003 1214.06 366.267 1184.18 328.837C1167.74 308.227 1174.9 280.238 1187.99 255.514C1216.05 202.491 1270.28 150.106 1263.25 97.2423C1258.4 60.9617 1221.41 30.9372 1171.82 23.1148C1119.84 14.9207 1053.08 30.4594 1023.16 66.9701C992.388 104.587 929.968 129.019 874.202 138.469Z" fill="#FFC107"/>
<path d="M926.367 338.889H675.562V396.964H926.367V338.889Z" fill="#565661"/>
<path opacity="0.1" d="M926.367 338.889H675.562V396.964H926.367V338.889Z" fill="black"/>
<path d="M705.568 398.877L707.329 553.919L683.207 614.817L681.34 398.877H705.568Z" fill="#BCBEC9"/>
<path d="M678.207 350.039L922.393 351.508V394.762H678.207V350.039Z" fill="#565661"/>
<path d="M901.501 398.877L922.393 401.824V612.464L901.501 548.035V398.877Z" fill="#BCBEC9"/>
<path d="M1048.01 341.217H930.331V591.288H1048.01V341.217Z" fill="#EFEFF0"/>
<path d="M1038.6 348.162H939.746V540.387H1038.6V348.162Z" fill="#565661"/>
<path opacity="0.1" d="M1038.6 348.162H939.746V540.387H1038.6V348.162Z" fill="black"/>
<path d="M1038.6 352.1H939.746V394.76H1038.6V352.1Z" fill="#565661"/>
<path d="M1038.6 398.877H939.746V489.49H1038.6V398.877Z" fill="#565661"/>
<path d="M1038.6 495.082H939.746V585.695H1038.6V495.082Z" fill="#565661"/>
<path opacity="0.1" d="M1038.6 495.082H939.746V585.695H1038.6V495.082Z" fill="black"/>
<path d="M943.87 607.569C947.389 607.569 950.241 603.924 950.241 599.428C950.241 594.932 947.389 591.287 943.87 591.287C940.352 591.287 937.499 594.932 937.499 599.428C937.499 603.924 940.352 607.569 943.87 607.569Z" fill="#565661"/>
<path d="M1032.23 607.958C1035.75 607.958 1038.6 604.313 1038.6 599.817C1038.6 595.321 1035.75 591.676 1032.23 591.676C1028.71 591.676 1025.86 595.321 1025.86 599.817C1025.86 604.313 1028.71 607.958 1032.23 607.958Z" fill="#565661"/>
<path d="M674.677 614.817H683.207L680.862 343.385H667.907L674.677 614.817Z" fill="#EFEFF0"/>
<path d="M922.394 341.217V612.463H930.331V343.385L922.394 341.217Z" fill="#EFEFF0"/>
<path d="M681.278 392.105V401.822H922.394V394.76L681.278 392.105Z" fill="#EFEFF0"/>
<path d="M697.622 322.979H1003.3L1047.72 337.685V346.216L666.438 343.278V334.597L697.622 322.979Z" fill="white"/>
<path d="M666.438 334.598L1047.72 337.686V346.216L666.438 343.278V334.598Z" fill="#BCBEC9"/>
<path d="M700.976 435.759L699.206 435.493C699.206 435.414 699.206 435.343 699.206 435.272C699.153 434.856 699.091 434.449 699.029 434.033C699.755 434.608 700.445 435.184 701.082 435.759H700.976Z" fill="url(#paint1_linear)"/>
<path d="M662.518 572.394C663.668 572.128 664.836 571.907 666.005 571.748C674.027 570.605 682.208 571.81 689.56 575.217C688.817 580.685 688.083 586.34 689.658 591.622C690.755 595.339 692.958 598.702 693.427 602.577C694.609 602.781 695.711 603.309 696.61 604.103C697.508 604.897 698.168 605.925 698.515 607.073C698.855 608.088 699.025 609.152 699.02 610.223C699.01 611.548 698.844 612.866 698.524 614.152C698.417 615.179 697.913 616.123 697.12 616.784C696.326 617.445 695.306 617.771 694.277 617.691C687.428 618.47 680.711 615.771 674.34 613.125L661.952 607.975C660.5 607.374 659.04 606.763 657.651 606.02C655.016 604.596 652.676 602.683 650.758 600.383C650.352 599.972 650.067 599.458 649.935 598.896C649.705 597.339 651.528 596.41 652.687 595.357C653.026 595.036 653.324 594.673 653.572 594.277C654.943 592.207 655.076 589.348 655.899 586.906C657.846 581.11 663.863 577.376 665.987 571.721C666.102 571.411 666.208 571.102 666.297 570.783" fill="#A26565"/>
<path opacity="0.1" d="M699.02 610.223C699.01 611.548 698.844 612.866 698.524 614.152C698.417 615.179 697.913 616.123 697.12 616.784C696.326 617.445 695.306 617.771 694.277 617.692C687.428 618.47 680.711 615.771 674.34 613.126L661.952 607.975C660.5 607.374 659.04 606.763 657.651 606.02C655.016 604.596 652.676 602.683 650.758 600.383C650.352 599.973 650.067 599.458 649.935 598.896C649.705 597.339 651.528 596.41 652.687 595.357C653.026 595.036 653.324 594.673 653.572 594.277C656.987 595.012 661.226 597.162 663.837 597.994C666.451 598.706 668.962 599.756 671.305 601.118C674.561 603.206 676.906 606.427 679.667 609.082C682.428 611.736 685.994 614.152 689.844 613.825C691.879 613.518 693.84 612.84 695.631 611.825L699.02 610.223Z" fill="black"/>
<path d="M684.517 484.471C684.747 485.274 684.726 486.128 684.457 486.919C684.188 487.71 683.684 488.399 683.012 488.896C681.853 489.612 680.358 489.515 679.207 490.294C677.782 491.294 677.579 493.276 677.331 494.992C676.446 500.895 673.517 506.248 671.013 511.673C668.509 517.097 666.394 523.017 667.314 528.91C667.943 532.91 669.907 537.175 668.066 540.777C667.615 541.662 666.943 542.449 666.429 543.308C663.907 547.52 665.341 552.856 665.244 557.758C665.28 558.302 665.161 558.846 664.898 559.324C664.512 559.776 664.036 560.144 663.5 560.404C662.602 561.064 661.864 561.919 661.342 562.904C660.819 563.889 660.526 564.979 660.483 566.094C660.408 568.322 660.677 570.548 661.279 572.695C661.377 573.561 661.76 574.371 662.368 574.996C663.072 575.461 663.904 575.696 664.748 575.668C670.307 576.119 675.761 577.445 680.906 579.597C684.26 580.995 687.516 582.747 691.082 583.42C691.427 583.527 691.79 583.563 692.149 583.525C692.509 583.486 692.856 583.376 693.171 583.199C693.619 582.794 693.929 582.258 694.056 581.668C695.427 577.155 696.817 572.5 696.348 567.81C696.144 565.793 695.604 563.819 695.463 561.802C694.843 553.838 700.232 546.653 701.94 538.795C702.71 535.255 702.71 531.592 703.259 528.017C704.745 518.221 710.143 509.434 712.223 499.744C712.512 497.938 712.962 496.161 713.568 494.435C715.116 490.683 718.7 487.639 718.78 483.577C718.829 482.684 718.593 481.798 718.107 481.047C717.273 480.131 716.165 479.51 714.948 479.277C710.141 477.954 705.247 476.967 700.303 476.321C698.037 475.876 695.724 475.715 693.419 475.843C690.424 476.195 687.546 477.211 684.994 478.817C681.579 480.923 683.773 481.427 684.517 484.471Z" fill="#454B69"/>
<path opacity="0.05" d="M684.517 484.471C684.747 485.274 684.726 486.128 684.457 486.919C684.188 487.71 683.684 488.399 683.012 488.896C681.853 489.612 680.358 489.515 679.207 490.294C677.782 491.294 677.579 493.276 677.331 494.992C676.446 500.895 673.517 506.248 671.013 511.673C668.509 517.097 666.394 523.017 667.314 528.91C667.943 532.91 669.907 537.175 668.066 540.777C667.615 541.662 666.943 542.449 666.429 543.308C663.907 547.52 665.341 552.856 665.244 557.758C665.28 558.302 665.161 558.846 664.898 559.324C664.512 559.776 664.036 560.144 663.5 560.404C662.602 561.064 661.864 561.919 661.342 562.904C660.819 563.889 660.526 564.979 660.483 566.094C660.408 568.322 660.677 570.548 661.279 572.695C661.377 573.561 661.76 574.371 662.368 574.996C663.072 575.461 663.904 575.696 664.748 575.668C670.307 576.119 675.761 577.445 680.906 579.597C684.26 580.995 687.516 582.747 691.082 583.42C691.427 583.527 691.79 583.563 692.149 583.525C692.509 583.486 692.856 583.376 693.171 583.199C693.619 582.794 693.929 582.258 694.056 581.668C695.427 577.155 696.817 572.5 696.348 567.81C696.144 565.793 695.604 563.819 695.463 561.802C694.843 553.838 700.232 546.653 701.94 538.795C702.71 535.255 702.71 531.592 703.259 528.017C704.745 518.221 710.143 509.434 712.223 499.744C712.512 497.938 712.962 496.161 713.568 494.435C715.116 490.683 718.7 487.639 718.78 483.577C718.829 482.684 718.593 481.798 718.107 481.047C717.273 480.131 716.165 479.51 714.948 479.277C710.141 477.954 705.247 476.967 700.303 476.321C698.037 475.876 695.724 475.715 693.419 475.843C690.424 476.195 687.546 477.211 684.994 478.817C681.579 480.923 683.773 481.427 684.517 484.471Z" fill="black"/>
<path d="M667.199 617.833H659.651L654.713 516.389L654.368 510.62L660.784 508.363L661.217 514.496L667.199 617.833Z" fill="#565661"/>
<path opacity="0.1" d="M661.217 514.496L654.713 516.389L654.368 510.62L660.784 508.363L661.217 514.496Z" fill="black"/>
<path d="M761.91 639.292L749.459 640.797L692.1 510.62L676.632 509.487L649.466 517.416L644.183 672.405H631.733L636.635 511.753L606.823 512.514L553.623 644.947H542.306L598.257 490.17L600.417 484.206L683.8 481.348L704.586 493.002L704.852 493.674L761.91 639.292Z" fill="#565661"/>
<path opacity="0.1" d="M704.852 493.674C686.933 499.072 668.333 504.965 668.333 504.965C668.333 504.965 651.369 510.885 644.184 504.965C643.278 504.259 642.265 503.7 641.184 503.311C642.116 503.977 643.123 504.532 644.184 504.965L598.258 490.161L600.408 484.206L683.8 481.348L704.587 493.002L704.852 493.674Z" fill="black"/>
<path d="M620.034 467.986L653.988 460.438C653.988 460.438 735.115 475.534 741.15 481.569C741.15 481.569 676.252 494.771 669.084 499.267C661.916 503.762 619.273 508.735 620.034 467.986Z" fill="white"/>
<path d="M605.434 383.133C602.779 391.549 595.532 399.132 586.709 399.495C586.068 399.57 585.418 399.453 584.842 399.159C583.736 398.468 583.71 396.849 584.161 395.619C584.612 394.389 585.4 393.283 585.524 391.991C585.55 391.727 585.532 391.461 585.471 391.203C585.241 390.15 584.382 389.212 583.373 389.434C584.06 388.884 584.518 388.098 584.657 387.23C584.796 386.361 584.607 385.471 584.126 384.735C583.725 384.283 583.364 383.797 583.046 383.284C582.312 381.779 583.453 380.089 583.931 378.479C584.913 374.939 582.418 371.399 582.214 367.709C582.037 364.409 583.71 361.303 584.126 358.029C584.789 352.719 582.152 347.631 581.843 342.331C581.63 338.632 582.542 334.968 583.559 331.402C584.444 328.217 585.444 324.996 585.506 321.669C585.506 319.253 585.09 316.864 584.975 314.457C584.791 312.256 585.191 310.047 586.134 308.05C586.747 306.876 587.79 305.985 589.046 305.563C591.948 304.59 593.851 306.103 594.275 308.855C594.983 313.536 594.576 318.315 595.505 323.014C596.364 327.408 597.666 331.704 599.39 335.836C600.956 339.57 602.859 343.18 604.062 347.047C604.968 350.235 605.616 353.49 606 356.781C607.186 365.621 608.115 374.718 605.434 383.133Z" fill="#FFC107"/>
<path d="M806.977 597.313C805.857 598.891 804.417 600.214 802.75 601.196C801.083 602.178 799.228 602.797 797.305 603.011C793.465 603.489 789.474 602.525 785.748 603.578C785.171 603.673 784.627 603.909 784.164 604.266C783.701 604.623 783.333 605.088 783.094 605.622C783.001 606.341 782.945 607.065 782.925 607.79C782.492 610.153 779.386 610.683 776.97 610.666L767.006 610.604C764.936 610.604 762.644 610.489 761.157 609.055C760.45 608.272 760.052 607.26 760.035 606.205C760.019 605.15 760.386 604.125 761.069 603.321C761.378 602.955 761.757 602.654 762.184 602.436C761.561 602.23 761.009 601.856 760.587 601.354C760.165 600.853 759.891 600.244 759.794 599.596C759.613 598.295 759.676 596.971 759.98 595.693C759.98 591.995 760.865 585.8 763.467 582.907C766.661 579.305 772.201 574.651 777.023 573.686C778.652 573.374 780.331 573.447 781.926 573.901C783.521 574.354 784.988 575.174 786.208 576.297C788.491 578.42 790.155 581.747 793.288 582.119C794.995 582.331 796.641 581.526 798.331 581.234C800.252 580.987 802.203 581.34 803.915 582.244C805.628 583.149 807.019 584.561 807.897 586.287C808.326 587.162 808.624 588.095 808.782 589.057C809.25 591.938 808.604 594.889 806.977 597.313Z" fill="#A26565"/>
<path opacity="0.1" d="M806.977 597.314C805.858 598.892 804.417 600.215 802.751 601.197C801.084 602.179 799.228 602.798 797.305 603.012C793.465 603.49 789.474 602.526 785.749 603.579C785.172 603.674 784.627 603.91 784.164 604.267C783.701 604.623 783.333 605.089 783.094 605.623C783.002 606.342 782.946 607.066 782.926 607.791C782.492 610.153 779.386 610.684 776.97 610.667L767.007 610.605C764.936 610.605 762.644 610.49 761.157 609.056C760.451 608.273 760.052 607.26 760.036 606.206C760.019 605.151 760.387 604.126 761.069 603.322C766.821 603.083 772.475 603.322 778.209 602.136C780.537 601.667 782.828 601.048 785.182 600.72C790.279 599.995 795.704 600.614 800.385 598.455C804.287 596.685 807.083 593.084 808.738 589.066C809.216 591.939 808.587 594.887 806.977 597.314V597.314Z" fill="black"/>
<path d="M780.687 583.323C777.147 586.066 772.997 588.207 768.537 588.437C764.077 588.668 759.343 586.668 757.157 582.792C753.963 577.102 756.795 569.191 752.883 563.97C751.662 562.333 749.901 561.174 748.609 559.59C747.317 558.006 746.574 555.626 747.724 553.944C746.335 554.475 744.866 553.13 744.459 551.697C744.052 550.263 744.309 548.723 744.061 547.272C743.415 543.423 739.636 540.954 737.822 537.538C736.008 534.123 736.256 529.689 736.053 525.645C735.6 515.793 731.933 506.36 725.611 498.789C724.407 497.355 722.868 495.895 720.992 495.966C721.319 492.727 719.16 489.63 716.364 488.002C713.567 486.374 710.24 485.825 707.002 485.507C674.322 482.286 640.272 494.435 609.07 484.215C600.39 481.374 592.019 476.622 586.709 469.172C584.641 466.336 583.161 463.115 582.357 459.699C581.554 456.282 581.442 452.739 582.028 449.279V449.155C583.258 442.873 586.576 441.324 592.072 438.457C598.415 435.103 605.046 432.322 611.884 430.148C625.158 425.998 639.449 424.502 653.147 427.546C659.545 428.98 665.712 431.351 672.119 432.74C674.641 433.289 677.181 433.678 679.738 434.006C683.711 434.501 687.702 434.829 691.702 435.289C704.491 436.762 717.086 439.595 729.274 443.74C733.814 445.279 738.353 447.04 742.256 449.828C745.342 452.07 747.952 454.903 749.933 458.163C751.914 461.423 753.227 465.045 753.795 468.818C754.166 471.419 754.175 474.127 754.742 476.649C755.278 478.768 755.989 480.84 756.865 482.843C764.426 501.538 770.605 520.762 775.351 540.361C775.62 541.817 776.119 543.221 776.828 544.52C777.961 546.352 779.908 547.582 781.049 549.414C783.704 553.732 781.147 559.758 783.501 564.253C784.315 565.811 785.669 567.041 786.483 568.598C789.137 573.704 785.217 579.81 780.687 583.323Z" fill="#454B69"/>
<path opacity="0.1" d="M735.468 481.65C736.726 480.654 737.812 479.458 738.681 478.11C739.552 476.755 739.899 475.128 739.654 473.535C739.999 475.55 739.867 477.617 739.27 479.572C738.672 481.526 737.625 483.314 736.212 484.791C733.991 487.065 729.823 489.295 726.575 488.516C727.035 485.915 733.407 483.402 735.468 481.65Z" fill="black"/>
<path opacity="0.1" d="M680.18 437.545C679.913 438.494 679.414 439.361 678.728 440.069C678.043 440.776 677.191 441.302 676.252 441.598C674.365 442.175 672.389 442.406 670.42 442.28H668.65C645.431 441.766 621.963 436.616 599.284 441.527C596.55 442.091 593.869 442.881 591.266 443.89C587.951 445.197 584.847 446.986 582.055 449.2V449.076C583.285 442.793 586.603 441.244 592.098 438.377C598.436 435.052 605.058 432.298 611.884 430.148C625.158 425.998 639.449 424.502 653.147 427.546C659.545 428.98 665.713 431.351 672.119 432.74C674.641 433.289 677.181 433.678 679.738 434.006C680.234 435.116 680.388 436.348 680.18 437.545V437.545Z" fill="black"/>
<path d="M680.18 436.28C679.915 437.231 679.417 438.1 678.731 438.809C678.045 439.519 677.193 440.045 676.252 440.342C674.365 440.92 672.389 441.148 670.42 441.014H668.65C645.431 440.501 621.963 435.351 599.284 440.262C596.551 440.827 593.87 441.614 591.266 442.616C587.795 444.001 584.556 445.911 581.665 448.279C580.987 446.415 580.311 444.548 579.639 442.678C578.825 440.448 581.409 439.953 581.904 437.953C582.232 436.599 581.674 435.059 581.391 433.617C581.318 433.264 581.271 432.906 581.249 432.546C581.09 429.352 582.232 427.511 584.851 425.785C592.62 420.653 602.097 417.131 610.964 414.485C615.678 412.995 620.547 412.051 625.476 411.671C632.449 411.264 639.413 412.556 646.201 414.193C654.545 416.255 662.801 418.981 670.199 423.343C673.827 425.458 677.366 428.113 679.322 431.882C680.103 433.207 680.405 434.759 680.18 436.28Z" fill="#A26565"/>
<path opacity="0.1" d="M605.434 383.134C602.779 391.549 595.532 399.133 586.71 399.495C586.068 399.571 585.418 399.454 584.843 399.159C583.736 398.469 583.71 396.85 584.161 395.62C584.612 394.39 585.4 393.283 585.524 391.992C585.55 391.728 585.532 391.462 585.471 391.204C590.152 384.603 594.691 377.931 596.488 370.117C596.851 368.772 596.962 367.37 596.815 365.985C596.576 364.392 595.771 362.949 595.329 361.41C594.55 358.684 594.913 355.799 595.134 352.977C596.055 340.547 593.98 328.077 589.081 316.616C587.887 313.855 586.524 311.059 586.108 308.113C586.721 306.939 587.764 306.047 589.019 305.626C591.922 304.653 593.824 306.166 594.249 308.918C594.957 313.599 594.55 318.377 595.479 323.076C596.338 327.47 597.64 331.766 599.364 335.898C600.93 339.632 602.832 343.243 604.036 347.11C604.942 350.297 605.59 353.552 605.974 356.844C607.186 365.622 608.115 374.718 605.434 383.134Z" fill="black"/>
<path opacity="0.1" d="M680.181 436.28C679.916 437.231 679.417 438.1 678.731 438.809C678.045 439.519 677.193 440.046 676.252 440.342C674.365 440.92 672.389 441.148 670.42 441.015H668.651C661.092 435.994 652.005 433.801 642.989 434.82C640.104 435.166 637.219 435.838 634.334 435.573C628.503 435.042 623.778 430.847 618.583 428.166C612.673 425.247 606.025 424.162 599.493 425.048C592.96 425.934 586.842 428.751 581.922 433.139L581.418 433.582C581.345 433.228 581.298 432.871 581.276 432.511C581.117 429.316 582.259 427.476 584.878 425.75C592.647 420.618 602.124 417.096 610.991 414.45C615.705 412.96 620.574 412.016 625.503 411.636C632.476 411.229 639.44 412.521 646.227 414.158C654.572 416.22 662.828 418.945 670.226 423.308C673.827 425.458 677.367 428.113 679.322 431.883C680.103 433.207 680.406 434.759 680.181 436.28Z" fill="black"/>
<path d="M700.029 339.35L699.905 339.668C697.923 344.81 694.277 349.154 691.941 354.163C688.994 360.508 688.269 367.622 687.614 374.595C687.048 380.568 686.49 386.577 686.942 392.567C688.074 407.327 695.286 421.326 697.215 435.803C697.69 439.147 697.812 442.531 697.578 445.9C697.419 448.032 697.029 450.324 695.613 451.899C694.198 453.475 691.446 454.094 689.924 452.581C690.605 451.28 691.295 449.988 691.985 448.687C687.941 445.546 681.853 447.802 677.128 445.838C675.049 444.953 673.385 443.36 671.642 441.936C667.663 438.701 663.078 436.294 658.156 434.856C653.234 433.419 648.074 432.979 642.98 433.564C640.095 433.918 637.211 434.591 634.326 434.325C628.494 433.786 623.769 429.6 618.575 426.919C612.664 424.002 606.017 422.916 599.486 423.8C592.954 424.684 586.835 427.499 581.914 431.883C580.675 433.034 579.011 434.379 577.489 433.653C576.901 433.293 576.426 432.775 576.118 432.157C570.321 422.256 574.587 409.487 580.781 399.841C586.975 390.196 595.178 381.303 597.727 370.126C598.095 368.782 598.206 367.38 598.054 365.994C597.815 364.401 597.01 362.959 596.567 361.419C595.789 358.694 596.152 355.809 596.373 352.986C597.301 340.555 595.231 328.082 590.338 316.617C588.922 313.316 587.241 309.971 587.241 306.388C587.241 300.742 591.285 296.061 594.629 291.521C598.479 286.301 601.709 280.522 606.584 276.23C611.204 272.151 617.893 269.656 623.61 271.726C633.323 269.368 643.321 268.394 653.307 268.833C656.758 268.992 660.324 269.355 663.35 271.027C666.589 272.797 668.916 275.947 672.102 277.832C674.429 279.221 677.11 279.876 679.641 280.85C686.629 283.579 692.398 288.738 695.888 295.38C699.427 302.237 700.312 310.122 701.091 317.803C701.834 325.032 702.542 332.545 700.029 339.35Z" fill="#FFC107"/>
<path opacity="0.1" d="M686.941 392.567C688.074 407.327 695.285 421.326 697.214 435.803C693.356 432.537 687.985 429.254 687.268 425.458C686.472 421.352 683.923 415.972 683.499 411.822C683.074 407.672 685.985 402.601 682.932 399.752C681.446 398.363 685.401 398.752 683.95 397.327C680.685 394.151 679.879 389.257 679.676 384.718C679.331 376.683 680.348 368.56 678.871 360.657C677.986 355.782 676.136 351.136 674.659 346.402C672.942 340.889 671.703 335.243 670.464 329.589C669.245 324.562 668.358 319.459 667.809 314.316C667.429 309.891 667.606 305.201 669.579 301.166C671.553 297.131 675.543 293.857 680.021 293.919C694.993 294.114 692.409 314.413 695.701 323.793C697.02 327.527 698.798 331.137 699.515 335.031C699.777 336.557 699.919 338.102 699.94 339.65C697.958 344.791 694.312 349.136 691.976 354.145C689.029 360.489 688.304 367.604 687.649 374.577C687.047 380.568 686.49 386.576 686.941 392.567Z" fill="black"/>
<path d="M696.675 323.564C697.993 327.298 699.772 330.908 700.489 334.802C701.683 341.323 699.834 348.252 701.843 354.57C702.366 355.919 702.803 357.299 703.152 358.703C703.498 360.711 703.099 362.764 703.099 364.809C703.099 368.1 704.135 371.286 705.055 374.445C708.167 385.18 710.227 396.193 711.205 407.328C711.351 410.32 711.823 413.287 712.612 416.177C712.984 417.156 713.303 418.154 713.568 419.168C713.805 420.52 713.862 421.897 713.736 423.265C713.497 427.601 713.01 431.954 713.497 436.272C713.983 440.591 715.559 444.971 718.806 447.865C715.904 448.493 712.833 449.121 710.001 448.192C706.019 446.891 703.63 442.883 701.604 439.237C699.038 434.582 689.286 430.388 688.277 425.158C687.49 421.061 684.941 415.681 684.517 411.522C684.092 407.363 686.994 402.31 683.941 399.461C682.464 398.072 686.419 398.452 684.959 397.036C681.703 393.86 680.897 388.966 680.694 384.418C680.349 376.392 681.358 368.268 679.889 360.366C679.004 355.491 677.154 350.845 675.676 346.102C673.96 340.598 672.721 334.952 671.482 329.289C670.259 324.262 669.372 319.16 668.827 314.016C668.447 309.591 668.615 304.892 670.597 300.857C672.579 296.822 676.57 293.557 681.039 293.61C695.949 293.875 693.383 314.184 696.675 323.564Z" fill="#FFC107"/>
<path opacity="0.1" d="M654.006 327.022C655.404 328.659 657.2 330.455 659.315 330.137C659.155 330.391 658.901 330.573 658.608 330.642C658.315 330.712 658.007 330.664 657.749 330.508C657.241 330.172 656.835 329.704 656.572 329.155L653.546 324.049C653.148 323.385 650.404 319.518 649.732 321.748C649.466 322.695 653.324 326.226 654.006 327.022Z" fill="black"/>
<path opacity="0.1" d="M652.377 339.756C652.29 338.087 651.587 336.511 650.404 335.331C649.34 334.367 648.099 333.618 646.749 333.128C643.431 331.765 639.502 330.668 635.9 330.845C637.21 332.756 641.413 333.898 643.519 334.977C646.504 336.517 649.457 338.11 652.377 339.756Z" fill="black"/>
<path opacity="0.1" d="M661.802 376.002C661.191 380.533 657.483 383.966 653.732 386.621C649.98 389.275 645.767 391.558 643.316 395.399C641.617 398.054 640.856 401.133 639.414 403.903C637.821 406.956 635.441 409.522 633.538 412.389C631.636 415.256 630.149 418.68 630.733 422.078C630.742 422.235 630.782 422.388 630.852 422.528C630.922 422.668 631.02 422.792 631.14 422.893C631.323 422.97 631.522 422.999 631.718 422.977C631.915 422.955 632.103 422.884 632.264 422.769C636.122 420.751 637.644 416.141 639.264 412.15C640.963 408.122 642.878 404.187 644.998 400.363C645.953 398.593 647.006 396.664 648.785 395.682C650.003 395.175 651.25 394.74 652.519 394.381C654.32 393.555 655.9 392.315 657.13 390.762C661.96 384.999 664.482 377.65 664.209 370.135C664.156 368.551 664.067 360.923 661.687 363.277C659.306 365.631 662.209 372.923 661.802 376.002Z" fill="black"/>
<path d="M667.633 202.234C675.243 205.553 681.791 212.853 681.552 221.127C681.349 229.816 674.075 238.002 676.579 246.329C678.031 251.16 682.402 254.399 685.862 258.071C699.038 272.017 699.011 296.36 685.791 310.28C680.729 315.589 674.225 319.368 668.872 324.438C649.997 342.224 649.192 372.992 659.297 396.875C651.555 398.55 643.663 399.439 635.741 399.53C632.034 399.53 627.494 398.902 626.149 395.442C624.91 392.247 627.034 387.929 624.592 385.567C623.441 384.46 621.716 384.31 620.167 384.053C610.203 382.443 602.027 374.488 598.293 365.117C594.559 355.746 594.753 345.198 596.895 335.34C598.417 328.217 600.797 320.376 597.266 314.005C592.842 305.988 580.117 302.608 580.312 293.44C580.471 285.928 589.329 282.273 594.355 276.689C603.629 266.407 599.213 250.452 599.195 236.595C599.195 224.401 603.461 211.818 612.54 203.694C626.043 191.509 652.05 195.465 667.633 202.234Z" fill="#A26565"/>
<g opacity="0.1">
<path opacity="0.1" d="M598.717 304.917C594.833 297.909 584.63 294.44 582.258 287.547C581.072 289.156 580.405 291.088 580.347 293.086C580.152 302.254 592.859 305.634 597.301 313.66C598.76 316.501 599.374 319.701 599.071 322.881C600.469 316.722 601.699 310.297 598.717 304.917Z" fill="black"/>
<path opacity="0.1" d="M677.597 234.984C679.189 230.339 681.499 225.649 681.614 220.826C681.63 220.304 681.615 219.781 681.57 219.26C679.791 224.587 677.066 229.755 677.597 234.984Z" fill="black"/>
<path opacity="0.1" d="M600.239 259.734C603.283 250.116 600.655 238.187 600.646 227.516C600.646 226.224 600.699 224.923 600.797 223.631C599.748 227.755 599.219 231.994 599.222 236.249C599.239 243.868 600.576 252.133 600.239 259.734Z" fill="black"/>
<path opacity="0.1" d="M687.269 301.227C682.207 306.536 675.703 310.315 670.349 315.385C660.793 324.385 655.881 336.711 654.651 349.781C656.934 340.047 661.545 331.083 668.934 324.119C674.243 319.075 680.791 315.314 685.853 309.961C691.873 303.399 695.37 294.914 695.719 286.016C694.191 291.702 691.289 296.925 687.269 301.227V301.227Z" fill="black"/>
<path opacity="0.1" d="M637.219 390.451C633.512 390.451 628.972 389.814 627.627 386.354C626.388 383.169 628.512 378.851 626.07 376.479C624.919 375.373 623.185 375.222 621.645 374.966C611.69 373.364 603.514 365.4 599.78 356.038C597.028 349.118 596.435 341.57 597.125 334.119C597.054 334.411 596.992 334.703 596.93 335.004C594.824 344.862 594.603 355.419 598.328 364.79C602.054 374.161 610.239 382.116 620.194 383.717C621.769 383.974 623.504 384.133 624.619 385.231C627.087 387.602 624.937 391.92 626.176 395.106C627.521 398.566 632.06 399.247 635.768 399.203C643.689 399.112 651.581 398.222 659.324 396.548C658.232 393.967 657.278 391.329 656.466 388.646C650.111 389.776 643.674 390.38 637.219 390.451V390.451Z" fill="black"/>
</g>
<path opacity="0.1" d="M666.2 351.862C668.385 353.508 670.757 347.234 669.403 345.668C669.04 346.075 665.863 351.632 666.2 351.862Z" fill="black"/>
<path opacity="0.1" d="M675.518 465.429C678.093 464.544 680.827 463.659 682.508 461.535C683.898 459.827 685.039 453.049 682.101 456.297C679.606 459.084 678.429 462.756 675.518 465.429Z" fill="black"/>
<path opacity="0.1" d="M701.736 458.324C701.427 460.412 700.851 462.58 699.374 464.084C699.099 464.367 698.489 464.544 698.409 464.164C700.06 463.285 701.594 462.203 702.975 460.943C705.966 457.979 706.373 450.678 701.816 448.74C701.772 451.944 702.223 455.067 701.736 458.324Z" fill="black"/>
<path d="M733.213 445.165C733.213 445.165 708.099 435.298 699.02 436.316C689.941 437.333 709.303 451.642 709.303 451.642L720.877 459.447C720.877 459.447 727.956 456.792 728.425 456.589C728.894 456.385 733.213 445.165 733.213 445.165Z" fill="#454B69"/>
<path d="M560.419 339.313C560.419 339.313 579.285 328.376 604.186 341.968C629.087 355.56 633.237 435.545 633.237 435.545C633.237 435.545 623.052 517.035 662.323 498.903C662.323 498.903 734 476.648 741.176 481.551C741.176 481.551 747.972 481.551 734.389 484.568C720.806 487.586 668.332 504.213 668.332 504.213C668.332 504.213 651.368 510.142 644.183 504.213C636.998 498.284 616.636 504.974 613.99 464.216C612.239 438.531 609.09 412.961 604.557 387.619L597.558 366.868L560.419 339.313Z" fill="#565661"/>
<path d="M558.154 465.34C558.154 465.34 566.454 382.708 552.845 352.896C541.005 326.916 586.789 339.065 598.735 342.605C600.584 343.158 602.196 344.31 603.319 345.879C610.398 355.834 635.794 395.734 628.308 449.12C628.308 449.12 625.291 496.665 644.157 504.204L586.028 485.48C581.312 483.958 576.524 482.693 571.693 481.595C565.534 480.197 555.499 476.224 558.154 465.34Z" fill="white"/>
<path d="M971.585 619.603H979.133L984.08 518.159L984.416 512.389L978 510.133L977.576 516.265L971.585 619.603Z" fill="#565661"/>
<path opacity="0.1" d="M977.575 516.265L984.079 518.159L984.415 512.389L978 510.133L977.575 516.265Z" fill="black"/>
<path d="M908.563 580.43C908.377 581.82 908.021 583.181 907.501 584.483C906.965 586.183 905.813 587.622 904.271 588.518C903.236 588.946 902.126 589.165 901.006 589.164C896.838 589.412 892.431 589.35 888.848 587.226C887.321 586.242 885.921 585.074 884.68 583.748C876.626 575.747 869.306 567.04 862.805 557.733C861.717 556.166 860.593 554.317 861.08 552.423C869.5 550.088 877.496 546.429 884.768 541.583C885.772 540.813 886.896 540.215 888.095 539.813C890.149 539.375 892.263 539.297 894.343 539.583C896.352 539.911 896.44 539.973 897.21 542.238C898.484 546.07 898.272 550.202 899.705 554.034C900.615 556.151 901.723 558.178 903.015 560.086C906.714 566.272 909.554 573.572 908.563 580.43Z" fill="#A26565"/>
<path opacity="0.1" d="M908.563 580.429C908.377 581.819 908.021 583.18 907.501 584.482C906.965 586.183 905.813 587.622 904.271 588.517C903.236 588.945 902.126 589.165 901.006 589.163C896.838 589.411 892.431 589.349 888.848 587.225C887.321 586.242 885.921 585.074 884.68 583.748C876.626 575.746 869.306 567.039 862.805 557.732C861.717 556.166 860.593 554.316 861.08 552.423C863.827 551.661 866.532 550.757 869.185 549.715L869.318 549.812C872.035 551.75 874.008 554.529 875.928 557.254L882.122 565.97C883.227 567.682 884.531 569.257 886.007 570.66C887.838 572.129 889.859 573.344 892.016 574.271C894.927 575.678 897.838 577.085 900.864 578.217C902.82 579.005 906.13 579.315 908.563 580.429Z" fill="black"/>
<path d="M914.279 485.932C913.669 487.402 912.929 488.815 912.066 490.153C903.842 503.964 897.497 518.811 893.201 534.3C891.979 534.026 891.289 535.689 891.298 536.955C891.307 538.22 891.298 539.813 890.13 540.273C889.785 540.406 889.395 540.406 889.059 540.556C888.316 540.893 888.104 541.839 887.997 542.653L886.953 550.317C886.59 552.971 886.272 555.847 887.573 558.192C888.47 559.586 889.634 560.789 890.997 561.732L908.27 575.359C908.978 575.917 909.854 576.509 910.704 576.2C912.642 575.492 910.925 572.023 912.474 570.616C913.5 569.652 915.128 570.377 916.553 570.262C918.411 570.121 919.818 568.413 920.287 566.616C920.616 564.787 920.649 562.917 920.384 561.077C920.268 560.237 920.365 559.382 920.668 558.59C921.196 557.752 921.922 557.056 922.783 556.564C925.78 554.375 928.194 551.485 929.816 548.147C931.437 544.809 932.215 541.124 932.083 537.415C931.942 536.286 931.984 535.142 932.207 534.026C932.567 533.004 933.109 532.057 933.808 531.23C940.082 522.743 945.312 513.532 950.506 504.338C953.497 499.028 956.541 493.639 957.585 487.657C957.676 487.435 957.713 487.194 957.695 486.955C957.676 486.715 957.603 486.483 957.479 486.277C957.355 486.071 957.185 485.897 956.983 485.768C956.78 485.639 956.55 485.558 956.311 485.534C953.72 484.725 951.077 484.092 948.4 483.64C940.268 481.994 932.419 479.454 924.508 477.012C916.597 474.57 916.659 479.543 914.279 485.932Z" fill="#454B69"/>
<path d="M876.875 641.062L889.334 642.566L946.684 512.389L962.152 511.257L989.327 519.185L994.601 674.174H1007.05L1002.15 513.522L1031.96 514.283L1085.16 646.716H1096.48L1040.53 491.94L1038.38 485.975L954.985 483.117L934.198 494.771L933.933 495.444L876.875 641.062Z" fill="#565661"/>
<path opacity="0.1" d="M933.933 495.444C951.852 500.842 970.452 506.735 970.452 506.735C970.452 506.735 987.416 512.655 994.601 506.735C995.507 506.028 996.519 505.47 997.601 505.08C996.668 505.746 995.662 506.302 994.601 506.735L1040.53 491.931L1038.4 485.975L955.011 483.117L934.225 494.771L933.933 495.444Z" fill="black"/>
<path d="M1018.75 469.755L984.797 462.207C984.797 462.207 903.67 477.303 897.635 483.338C897.635 483.338 962.533 496.541 969.7 501.036C976.868 505.531 1019.51 510.504 1018.75 469.755Z" fill="white"/>
<path d="M892.758 591.056C890.714 594.95 885.679 596.047 881.254 596.109C875.112 596.185 869.01 595.095 863.273 592.897C859.999 591.64 856.858 590.021 853.478 589.101C848.443 587.72 842.859 587.835 838.434 585.066C836.088 583.501 834.149 581.399 832.78 578.933C832.523 578.5 832.276 578.048 832.046 577.588C829.931 573.474 828.948 568.686 830.125 564.244C831.302 559.802 835.576 554.908 840.532 554.979C846.416 555.068 853.433 557.855 859.114 559.298C866.194 561.067 873.273 563.111 879.529 566.855C884.767 570.005 889.395 574.527 891.864 580.048C892.339 581.113 892.729 582.214 893.032 583.34C893.802 585.889 893.979 588.729 892.758 591.056Z" fill="#A26565"/>
<path opacity="0.1" d="M892.758 591.058C890.714 594.951 885.679 596.049 881.255 596.111C875.112 596.187 869.01 595.097 863.274 592.898C860 591.642 856.858 590.023 853.478 589.102C848.443 587.722 842.859 587.837 838.435 585.067C836.088 583.503 834.15 581.4 832.78 578.935C832.524 578.501 832.276 578.05 832.046 577.59C832.931 577.661 833.745 577.749 834.187 577.793C839.621 578.315 844.806 580.298 849.992 581.793C857.19 583.872 864.624 585.032 872.114 585.244C877.423 585.395 882.963 585.005 887.599 582.413C888.984 581.539 890.42 580.75 891.9 580.05C892.375 581.115 892.765 582.216 893.068 583.342C893.803 585.89 893.98 588.731 892.758 591.058Z" fill="black"/>
<path d="M930.782 422.803C919.278 420.918 907.562 420.458 895.9 419.998L881.635 419.432C880.621 419.314 879.593 419.438 878.635 419.794C877.81 420.325 877.026 420.916 876.29 421.564C874.857 422.538 873.025 422.644 871.3 422.741C859.059 423.416 846.885 424.995 834.877 427.467C828.683 428.732 822.25 430.387 817.595 434.661C812.675 439.183 810.516 446.076 810.348 452.748C810.18 459.42 811.932 465.977 813.781 472.384C816.136 480.096 817.437 488.091 817.648 496.152C817.565 498.388 817.651 500.627 817.905 502.851C818.317 504.973 818.942 507.048 819.772 509.045L826.285 526.433C826.86 527.955 827.427 529.468 828.055 530.955C828.683 532.441 829.285 533.609 829.825 535.008C830.621 536.919 831.249 538.901 831.878 540.874L836.214 554.493L836.78 556.263C838.346 561.165 839.948 566.156 842.903 570.368C845.859 574.58 850.434 577.978 855.575 578.235C857.234 578.172 858.895 578.217 860.548 578.367C861.957 578.711 863.325 579.207 864.627 579.845C868.488 581.449 872.632 582.258 876.812 582.225C880.662 582.225 884.936 581.155 887.024 577.916C888.174 576.146 888.475 573.969 888.794 571.881C889.351 567.687 889.891 563.306 888.466 559.324C887.582 556.944 886.095 554.9 885.068 552.555C883.635 549.36 883.166 545.83 882.237 542.458C880.226 535.202 876.135 528.693 870.468 523.734C868.455 515.765 866.977 507.671 866.043 499.506C865.914 497.698 865.554 495.913 864.973 494.196C863.937 491.542 861.84 489.391 860.964 486.684C860.141 484.17 860.389 481.268 858.893 479.1C871.344 482.525 883.67 481.755 896.599 481.551C900.739 481.564 904.876 481.328 908.987 480.843C910.904 480.492 912.844 480.285 914.792 480.224C918.792 480.224 922.544 481.994 926.216 483.551C936.596 487.975 947.533 491.453 958.807 491.931C970.443 492.418 981.947 489.683 993.317 486.976C998.317 485.781 1003.51 484.489 1007.48 481.206C1011.44 477.923 1013.67 472.003 1011.23 467.499C1009.37 464.11 1005.52 462.446 1001.93 461.031C991.981 457.102 981.982 453.27 972.399 448.518C957.762 441.386 946.816 425.458 930.782 422.803Z" fill="#454B69"/>
<path d="M910.27 382.772C908.881 385.78 906.545 388.24 904.819 391.072C901.933 395.733 900.98 401.337 902.165 406.69C902.787 409.336 904.008 411.805 905.734 413.905C907.46 416.005 909.644 417.681 912.12 418.804C914.33 419.685 916.654 420.245 919.022 420.468C922.137 420.848 925.455 420.928 928.207 419.424C930.267 418.188 931.957 416.421 933.101 414.309C935.481 410.327 936.835 405.841 938.074 401.372C940.366 393.125 942.321 384.665 942.038 376.108C941.941 373.162 941.357 369.843 938.914 368.144C937.654 367.416 936.255 366.958 934.808 366.799L923.137 364.711C920.88 364.304 916.942 362.649 914.987 364.277C913.031 365.905 912.881 370.719 912.545 372.976C912.014 376.312 911.686 379.701 910.27 382.772Z" fill="#A1616A"/>
<path d="M1052.15 348.543L1049.09 374.134C1048.46 378.699 1048.1 383.296 1048 387.903C1048 390.469 1048.08 393.319 1046.38 395.239C1045.55 396.113 1044.5 396.746 1043.34 397.071C1039.63 398.221 1035.59 397.194 1032.05 395.61C1029.98 394.726 1027.86 393.442 1026.93 391.381C1026.38 389.951 1026.15 388.42 1026.26 386.894C1026.26 371.63 1027.7 355.711 1035.68 342.703C1036.36 341.426 1037.32 340.319 1038.48 339.464C1040.7 338.048 1043.59 338.446 1046.09 339.216C1047.63 339.685 1051.79 340.207 1052.77 341.579C1053.76 342.95 1052.36 346.782 1052.15 348.543Z" fill="#A1616A"/>
<path d="M971.151 256.001C988.745 256.001 1003.01 241.739 1003.01 224.145C1003.01 206.552 988.745 192.289 971.151 192.289C953.557 192.289 939.295 206.552 939.295 224.145C939.295 241.739 953.557 256.001 971.151 256.001Z" fill="#A1616A"/>
<path d="M962.63 271.618C962.515 274.097 961.841 276.517 960.657 278.698C976.921 276.22 993.144 273.459 1009.33 270.415C1003.96 267.655 999.898 262.884 998.035 257.142C997.155 254.063 996.673 250.884 996.601 247.682C996.344 242.605 996.442 237.517 996.893 232.453C991.23 233.046 985.867 235.17 980.47 236.993C975.042 238.827 969.522 240.372 963.931 241.621C961.232 242.222 958.515 242.736 955.79 243.213C952.604 243.78 951.073 243.771 953.286 246.567C959.223 254.036 963.462 261.628 962.63 271.618Z" fill="#A1616A"/>
<path d="M972.416 267.363C968.213 267.991 963.806 268.699 960.453 271.301C959.176 272.397 957.962 273.564 956.816 274.796C950.153 281.264 940.746 283.866 932.658 288.432C931.339 289.084 930.17 290.003 929.225 291.131C928.34 292.361 927.889 293.927 926.96 295.148C925.88 296.564 924.172 297.449 923.331 299.015C922.491 300.582 922.677 302.245 922.588 303.909C922.385 307.564 921.004 311.032 919.933 314.528C915.022 331.261 917.712 349.923 910.279 365.728C910.621 366.638 911.144 367.47 911.816 368.172C912.488 368.875 913.296 369.434 914.191 369.816C916.061 370.49 918.013 370.909 919.995 371.063L936.463 373.108C938.817 373.4 941.312 373.674 943.463 372.692C941.496 378.114 940.105 383.729 939.313 389.443C938.912 392.935 938.292 396.399 937.454 399.814C935.189 407.601 929.49 414.087 922.739 418.52C921.888 418.966 921.171 419.628 920.659 420.44C919.774 422.21 921.084 424.192 922.013 425.927C924.712 430.953 924.34 436.988 924.305 442.687C924.269 448.385 924.845 454.642 928.827 458.73C931.18 461.146 934.401 462.455 937.534 463.703L963.293 473.994C967.544 475.804 971.929 477.283 976.407 478.419C983.194 479.967 990.247 479.905 997.211 479.604C1001.81 479.41 1006.41 479.115 1011 478.72C1012.82 478.713 1014.62 478.241 1016.21 477.348C1017.58 476.266 1018.63 474.836 1019.26 473.207C1022.85 465.411 1024.05 456.314 1029.61 449.783C1033.42 445.297 1039.34 441.713 1039.77 435.846C1039.98 432.926 1038.68 430.086 1038.66 427.157C1038.66 423.555 1040.54 420.131 1040.43 416.538C1040.19 410.689 1034.68 406.229 1033.8 400.442C1031.57 385.77 1039.02 371.117 1043.6 357.002C1044.42 354.481 1045.48 351.693 1047.91 350.614C1050.33 349.534 1053.75 350.1 1054.61 347.711C1056.8 341.712 1057.32 334.677 1057.04 328.297C1056.88 324.607 1055.57 320.996 1055.72 317.297C1055.83 314.696 1056.66 312.165 1056.88 309.572C1057.22 305.652 1056.18 301.759 1055.11 297.971C1054.8 296.619 1054.34 295.307 1053.73 294.06C1053.08 292.929 1052.3 291.87 1051.43 290.901L1047.12 285.777C1045.1 283.379 1042.97 280.893 1040.04 279.681C1039.09 277.336 1036.07 275.716 1033.9 274.424C1031.71 273.184 1029.46 272.076 1027.14 271.106L1002.77 260.346C1001.86 259.887 1000.88 259.571 999.875 259.408C998.391 259.358 996.917 259.661 995.574 260.293C988.141 263.239 980.381 266.177 972.416 267.363Z" fill="#FFC107"/>
<path d="M946.604 229.684C945.666 226.383 943.268 223.534 942.905 220.118C942.578 217.083 943.914 214.145 944.675 211.189C945.436 208.234 945.409 204.624 943.064 202.659C942.675 202.323 942.179 202.022 942.038 201.526C941.755 200.642 942.648 199.836 942.923 198.943C943.427 197.173 941.241 195.217 942.038 193.518C942.489 192.589 943.622 192.262 944.613 191.97C948.4 190.846 952.241 188.35 953.064 184.483C956.028 185.722 959.187 183.395 961.461 181.139C963.735 178.882 966.532 176.307 969.664 176.988L968.965 178.413C973.795 176.659 979.078 176.6 983.946 178.245H982.46C986.73 178.317 990.872 179.718 994.309 182.253C993.928 182.253 993.893 182.82 994.043 183.138C995.282 186.032 998.468 187.563 1001.54 188.28C1003.39 188.722 1005.4 189.041 1006.75 190.368C1008.1 191.695 1008.13 194.465 1006.34 195.102C1009.99 196.521 1013.44 198.394 1016.62 200.677C1017.5 201.323 1018.5 202.199 1018.39 203.332C1018.26 203.9 1018.08 204.455 1017.84 204.986C1017.66 205.931 1017.73 206.905 1018.02 207.818L1019.01 211.871C1020.09 216.375 1020.94 221.799 1017.65 225.065C1018.88 227.361 1019.34 229.992 1018.95 232.568C1018.57 235.143 1017.36 237.527 1015.52 239.365C1015.78 240.155 1015.87 240.992 1015.78 241.82C1015.7 242.648 1015.44 243.448 1015.02 244.168C1014.6 244.887 1014.03 245.51 1013.36 245.996C1012.68 246.481 1011.91 246.818 1011.1 246.983C1012.18 248.682 1011.18 251.107 1009.47 252.169C1007.75 253.231 1005.59 253.24 1003.59 253.054C1001.59 252.868 999.565 252.417 997.565 252.718C994.654 253.169 991.804 255.151 988.999 254.266C987.954 253.819 986.95 253.28 985.999 252.656C984.035 251.603 981.752 251.364 979.575 250.886C975.864 250.088 972.34 248.586 969.195 246.461C967.11 245.208 965.449 243.359 964.426 241.152C962.479 236.232 965.753 229.781 962.311 225.773C960.293 223.436 956.294 223.401 954.037 225.401C952.913 226.401 952.763 228.507 951.595 229.259C949.965 229.671 948.28 229.815 946.604 229.684Z" fill="#464353"/>
<path opacity="0.1" d="M903.316 483.419C902.058 482.424 900.973 481.228 900.104 479.88C899.232 478.525 898.885 476.897 899.13 475.305C898.785 477.319 898.917 479.387 899.515 481.341C900.112 483.296 901.16 485.083 902.572 486.561C904.793 488.835 908.961 491.065 912.209 490.286C911.749 487.684 905.378 485.171 903.316 483.419Z" fill="black"/>
<path d="M1078.36 341.084C1078.36 341.084 1059.5 330.147 1034.6 343.739C1009.7 357.331 1005.55 437.317 1005.55 437.317C1005.55 437.317 1015.73 518.806 976.46 500.675C976.46 500.675 904.784 478.42 897.607 483.322C897.607 483.322 890.811 483.322 904.394 486.34C917.978 489.357 970.452 505.984 970.452 505.984C970.452 505.984 987.415 511.913 994.6 505.984C1001.79 500.055 1022.15 506.745 1024.79 465.987C1026.54 440.303 1029.69 414.733 1034.23 389.391L1041.23 368.64L1078.36 341.084Z" fill="#565661"/>
<path d="M1080.63 467.109C1080.63 467.109 1072.33 384.478 1085.94 354.666C1097.78 328.685 1051.99 340.835 1040.05 344.375C1038.2 344.927 1036.59 346.079 1035.46 347.649C1028.39 357.604 1002.99 397.504 1010.48 450.889C1010.48 450.889 1013.49 498.435 994.627 505.974L1052.76 487.25C1057.47 485.727 1062.26 484.462 1067.09 483.365C1073.25 481.967 1083.28 477.994 1080.63 467.109Z" fill="white"/>
<path opacity="0.1" d="M1233.02 627.789C1280.64 627.789 1319.24 621.589 1319.24 613.94C1319.24 606.292 1280.64 600.092 1233.02 600.092C1185.4 600.092 1146.79 606.292 1146.79 613.94C1146.79 621.589 1185.4 627.789 1233.02 627.789Z" fill="#FFC107"/>
<path d="M1187.24 395.46C1219.56 418.839 1233.02 455.403 1233.02 455.403C1233.02 455.403 1194.08 454.067 1161.76 430.688C1129.43 407.309 1115.99 370.754 1115.99 370.754C1115.99 370.754 1154.93 372.09 1187.24 395.46Z" fill="#FFC107"/>
<path d="M1115.99 370.754C1115.99 370.754 1156.4 393.186 1169.38 411.76C1182.35 430.334 1233.02 455.403 1233.02 455.403" stroke="#535461" stroke-width="2" stroke-miterlimit="10"/>
<path d="M1208.1 348.366C1225.69 361.082 1233.02 380.992 1233.02 380.992C1233.02 380.992 1211.78 380.258 1194.23 367.542C1176.69 354.826 1169.37 334.916 1169.37 334.916C1169.37 334.916 1190.52 335.642 1208.1 348.366Z" fill="#FFC107"/>
<path d="M1169.37 334.916C1169.37 334.916 1191.37 347.128 1198.42 357.233C1205.47 367.338 1233.06 380.992 1233.06 380.992" stroke="#535461" stroke-width="2" stroke-miterlimit="10"/>
<path d="M849.868 326.527V328.545H790.04V326.908C791.68 326.293 793.233 325.466 794.659 324.448C797.2 322.629 799.27 320.23 800.698 317.451C802.126 314.671 802.871 311.591 802.871 308.467C802.872 306.834 802.667 305.208 802.26 303.626C801.537 300.78 800.185 298.132 798.305 295.877C796.425 293.622 794.063 291.816 791.394 290.592H849.461C846.791 291.816 844.43 293.622 842.55 295.877C840.669 298.132 839.318 300.78 838.594 303.626C838.191 305.208 837.989 306.834 837.992 308.467C837.99 311.591 838.734 314.67 840.16 317.45C841.587 320.229 843.656 322.628 846.195 324.448C847.344 325.267 848.574 325.964 849.868 326.527V326.527Z" fill="#DFE6F5"/>
<path opacity="0.1" d="M849.46 290.592C846.791 291.816 844.43 293.622 842.549 295.877C840.669 298.132 839.317 300.78 838.594 303.626H802.26C801.537 300.78 800.185 298.132 798.305 295.877C796.424 293.622 794.063 291.816 791.394 290.592H849.46Z" fill="black"/>
<path d="M721.541 280.283V291.645C721.541 297.91 726.125 302.998 731.788 302.998H907.802C913.465 302.998 918.058 297.91 918.058 291.645V280.283H721.541Z" fill="#DFE6F5"/>
<path opacity="0.1" d="M849.868 326.527V328.544H790.04V326.907C791.68 326.292 793.233 325.465 794.659 324.447H846.195C847.344 325.267 848.574 325.963 849.868 326.527V326.527Z" fill="black"/>
<path d="M866.636 325.076H773.271C771.615 325.076 770.271 326.417 770.271 328.072C770.271 329.726 771.615 331.067 773.271 331.067H866.636C868.293 331.067 869.636 329.726 869.636 328.072C869.636 326.417 868.293 325.076 866.636 325.076Z" fill="#DFE6F5"/>
<path d="M918.058 155.841C918.058 154.494 917.793 153.161 917.277 151.917C916.762 150.674 916.006 149.544 915.054 148.592C914.101 147.64 912.97 146.886 911.726 146.371C910.482 145.857 909.148 145.593 907.802 145.594H731.788C730.442 145.593 729.109 145.857 727.865 146.371C726.622 146.886 725.491 147.641 724.54 148.592C723.588 149.544 722.833 150.674 722.319 151.918C721.804 153.162 721.54 154.495 721.541 155.841V282.496H918.058V155.841Z" fill="#474157"/>
<path d="M912.696 160.415V269.257C912.697 269.92 912.567 270.577 912.314 271.19C912.061 271.803 911.69 272.36 911.221 272.829C910.753 273.298 910.196 273.671 909.584 273.925C908.971 274.179 908.315 274.31 907.652 274.31H731.947C731.284 274.31 730.628 274.179 730.015 273.925C729.402 273.671 728.846 273.298 728.378 272.829C727.909 272.36 727.538 271.803 727.285 271.19C727.032 270.577 726.902 269.92 726.903 269.257V160.415C726.899 159.529 727.131 158.659 727.576 157.893C728.019 157.126 728.656 156.489 729.423 156.046C730.191 155.603 731.061 155.371 731.947 155.371H907.652C908.989 155.371 910.272 155.903 911.218 156.848C912.164 157.794 912.696 159.077 912.696 160.415V160.415Z" fill="#4C4C78"/>
<path d="M819.799 152.841C821.104 152.841 822.162 151.783 822.162 150.478C822.162 149.173 821.104 148.115 819.799 148.115C818.494 148.115 817.437 149.173 817.437 150.478C817.437 151.783 818.494 152.841 819.799 152.841Z" fill="white"/>
<path d="M819.799 297.944C823.02 297.944 825.631 295.333 825.631 292.113C825.631 288.892 823.02 286.281 819.799 286.281C816.579 286.281 813.968 288.892 813.968 292.113C813.968 295.333 816.579 297.944 819.799 297.944Z" fill="white"/>
<path d="M912.695 160.415H726.921C726.921 159.077 727.452 157.794 728.398 156.848C729.344 155.903 730.627 155.371 731.965 155.371H907.651C908.989 155.371 910.272 155.903 911.218 156.848C912.164 157.794 912.695 159.077 912.695 160.415Z" fill="#C8CAD7"/>
<path d="M731.947 159.158C732.646 159.158 733.212 158.591 733.212 157.892C733.212 157.193 732.646 156.627 731.947 156.627C731.248 156.627 730.682 157.193 730.682 157.892C730.682 158.591 731.248 159.158 731.947 159.158Z" fill="#EDEDF4"/>
<path d="M735.734 159.158C736.433 159.158 737 158.591 737 157.892C737 157.193 736.433 156.627 735.734 156.627C735.035 156.627 734.469 157.193 734.469 157.892C734.469 158.591 735.035 159.158 735.734 159.158Z" fill="#EDEDF4"/>
<path d="M739.521 159.158C740.22 159.158 740.787 158.591 740.787 157.892C740.787 157.193 740.22 156.627 739.521 156.627C738.822 156.627 738.256 157.193 738.256 157.892C738.256 158.591 738.822 159.158 739.521 159.158Z" fill="#EDEDF4"/>
</g>
</g>
<defs>
<linearGradient id="paint0_linear" x1="1333.95" y1="258.303" x2="798.234" y2="255.771" gradientUnits="userSpaceOnUse">
<stop stop-color="#FFBD3D"/>
<stop offset="1" stop-color="#FFD32A"/>
</linearGradient>
<linearGradient id="paint1_linear" x1="698.967" y1="434.9" x2="701.02" y2="434.9" gradientUnits="userSpaceOnUse">
<stop stop-color="#808080" stop-opacity="0.25"/>
<stop offset="0.54" stop-color="#808080" stop-opacity="0.12"/>
<stop offset="1" stop-color="#808080" stop-opacity="0.1"/>
</linearGradient>
<clipPath id="clip0">
<rect width="1181" height="734" fill="white"/>
</clipPath>
<clipPath id="clip1">
<rect width="1000" height="653.175" fill="white" transform="translate(357 21)"/>
</clipPath>
</defs>
</svg>
