<svg width="634" height="536" viewBox="0 0 634 536" fill="none" xmlns="http://www.w3.org/2000/svg">
<g clip-path="url(#clip0)">
<rect width="634" height="4139" fill="white"/>
<path d="M704.952 255.156C643.467 228.403 529.842 25.2414 507 -93.344L999.802 -121L1042.95 21.2633L915.952 109.156C853.258 164.467 831 310 704.952 255.156Z" fill="url(#paint0_linear)" fill-opacity="0.9"/>
<g clip-path="url(#clip1)">
<path opacity="0.1" d="M809.822 617.089C852.526 664.825 882.286 720.616 909.007 775.488C935.728 830.359 960.648 886.189 996.554 938.242C1019.65 971.728 1050.6 1005.72 1085.53 1017.25C1119.14 1028.36 1147.11 1015.76 1170.34 1001.18C1187.82 990.24 1204.93 977.347 1211.03 956.218C1215.26 941.546 1213.83 923.963 1216.45 908.389C1225.51 854.234 1280.84 834.089 1336.57 830.75C1362.71 829.185 1390.04 830.203 1414.5 824.944C1438.95 819.685 1460.86 807.226 1468.87 784C1476.81 760.978 1470.15 730.333 1458.46 701.376C1434.71 642.56 1391.71 587.46 1347.8 535.596C1250.57 420.851 1144.19 313.689 1038.05 206.754C998.776 167.193 959.326 127.457 916.581 92.4348C892.822 72.9967 866.767 54.3789 840.787 48.5267C807.835 41.055 779.869 57.9717 775.625 87.8639C768.529 138.006 821.304 208.108 805.573 253.347C796.906 278.245 769.411 287.114 741.516 289.226C681.698 293.762 608.462 275.816 567.487 309.948C539.381 333.397 533.71 380.705 553.535 426.828C574.32 475.169 623.063 523.357 669.908 529.205C718.137 535.175 772.09 574.952 809.822 617.089Z" fill="#FFC107"/>
</g>
</g>
<defs>
<linearGradient id="paint0_linear" x1="1042.95" y1="267.303" x2="507.234" y2="264.771" gradientUnits="userSpaceOnUse">
<stop stop-color="#FFBD3D"/>
<stop offset="1" stop-color="#FFD32A"/>
</linearGradient>
<clipPath id="clip0">
<rect width="634" height="4139" fill="white"/>
</clipPath>
<clipPath id="clip1">
<rect width="1000" height="653.175" fill="white" transform="translate(986.238 1117.26) rotate(-122.225)"/>
</clipPath>
</defs>
</svg>
