<svg width="386" height="231" viewBox="0 0 386 231" fill="none" xmlns="http://www.w3.org/2000/svg">
<rect width="1366" height="1132" transform="translate(-578 -307)" fill="#F6F6F6"/>
<rect x="-144.5" y="-132.5" width="665" height="776" rx="6.5" fill="#FDFDFD" stroke="#C4C4C4"/>
<path opacity="0.1" d="M278.659 82.7339C278.963 82.3013 279.13 81.7877 279.14 81.2591C279.14 78.0564 272.615 75.4648 264.567 75.4648C256.518 75.4648 249.993 78.0564 249.993 81.2591C250.008 81.8579 250.219 82.4353 250.594 82.9025C241.632 83.9033 235.596 85.7785 235.596 87.9312C235.596 91.1303 248.94 93.7254 265.445 93.7254C281.949 93.7254 295.294 91.1303 295.294 87.9312C295.276 85.6662 288.491 83.6821 278.659 82.7339Z" fill="#FFD32A"/>
<path d="M241.436 69.8646C236.397 45.0303 214.8 26.3203 188.526 26.3203C167.649 26.3203 149.652 38.1967 140.652 55.4669C119.055 57.6265 102.14 75.9819 102.14 98.3088C102.14 122.062 121.573 141.502 145.333 141.502H238.918C258.713 141.502 274.912 125.303 274.912 105.508C274.95 96.4121 271.501 87.6477 265.274 81.0177C259.047 74.3878 250.516 70.3963 241.436 69.8646V69.8646ZM200.041 91.0924V118.448H177.004V91.0924H152.528L188.522 55.1157L224.517 91.11L200.041 91.0924Z" fill="#FFD32A"/>
<path d="M153.321 86.9825C152.97 84.9773 153.142 82.8177 152.222 81.0127C152.133 80.7996 151.989 80.6142 151.804 80.4754C151.575 80.3516 151.317 80.2921 151.056 80.3033C150.224 80.2717 149.395 80.2612 148.563 80.2823C148.331 80.2823 148.058 80.3174 147.938 80.5211C147.924 80.5427 147.913 80.5664 147.907 80.5913C146.955 79.5378 146.235 78.2069 145.21 77.2236C145.357 77.1745 145.501 77.1288 145.652 77.0902C145.652 76.9884 145.617 76.8935 145.596 76.7952C145.596 76.7636 145.578 76.7355 145.571 76.7074C145.564 76.6793 145.54 76.574 145.519 76.5073C145.498 76.4405 145.498 76.4405 145.483 76.4089C145.466 76.3459 145.444 76.2837 145.42 76.2228C145.42 76.1912 145.396 76.1596 145.382 76.128L145.308 75.9419L145.266 75.8541C145.238 75.7909 145.21 75.7277 145.178 75.668L145.136 75.5907C145.104 75.524 145.069 75.4573 145.034 75.3906L144.999 75.3274C144.96 75.2571 144.918 75.1869 144.879 75.1131C144.869 75.1017 144.861 75.0886 144.855 75.0745C144.809 74.9937 144.76 74.913 144.711 74.8357C144.311 74.1826 143.868 73.5399 143.542 72.8692C142.969 71.6893 142.78 70.3584 142.397 69.1012C142.014 67.8441 141.343 66.5658 140.205 65.9653C139.654 65.6844 138.917 65.4351 138.864 64.8135C138.862 64.6137 138.904 64.416 138.987 64.2341C139.145 63.8314 139.336 63.4426 139.559 63.0717C139.644 62.9383 139.731 62.8049 139.819 62.6714L139.889 62.5766C139.96 62.4783 140.033 62.38 140.107 62.2886L140.198 62.1728C140.272 62.0815 140.349 61.9972 140.427 61.9094L140.522 61.8076C140.63 61.6917 140.739 61.5793 140.855 61.4564C140.962 61.3742 141.046 61.2668 141.101 61.1439C141.131 61.0222 141.137 60.8956 141.119 60.7716C141.062 59.7673 141.589 58.8297 142.172 58.022C142.755 57.2143 143.443 56.4488 143.777 55.5042C143.815 55.3953 143.847 55.2864 143.875 55.1741C143.885 55.1383 143.894 55.1019 143.9 55.0652C143.917 54.9915 143.931 54.9177 143.945 54.8405L143.966 54.7141C143.966 54.6438 143.984 54.5736 143.991 54.5069V54.3699V54.1627V54.0258C143.991 53.959 143.991 53.8888 143.991 53.8186C143.991 53.7483 143.991 53.7308 143.991 53.6851C143.991 53.6395 143.991 53.5377 143.973 53.4639V53.3445C143.973 53.2602 143.949 53.1724 143.938 53.0882C143.938 53.0601 143.938 53.032 143.938 53.0039C143.922 52.8892 143.901 52.7721 143.875 52.6527C143.708 51.9067 143.492 51.1723 143.229 50.4544C143.089 50.0135 142.91 49.5857 142.695 49.1762C142.825 49.1516 142.959 49.1235 143.089 49.0884C142.985 48.927 142.891 48.7606 142.804 48.5898C143.612 47.3992 144.219 46.0834 144.599 44.6954C144.8 43.7038 144.917 42.6971 144.95 41.6859C145.143 38.6448 145.34 35.5897 145.087 32.5556V32.4362C145.181 31.7846 145.189 31.1232 145.108 30.4697C145.026 29.1914 144.649 27.9495 144.005 26.8422C143.324 25.7676 142.2 24.8195 140.95 24.6931C140.744 24.9252 140.516 25.1368 140.269 25.3252C139.892 24.9946 139.616 24.5652 139.472 24.0856C140.931 23.8565 142.275 23.1545 143.297 22.0874C144.319 21.0203 144.963 19.6472 145.129 18.179C145.129 18.0701 145.153 17.9578 145.16 17.8489C145.16 17.8032 145.16 17.7576 145.16 17.7119C145.16 17.6663 145.16 17.582 145.16 17.5188C145.16 17.4556 145.16 17.4029 145.16 17.3432V17.1992C145.16 17.1325 145.16 17.0623 145.16 16.9956C145.16 16.9288 145.16 16.9218 145.16 16.8867C145.16 16.8516 145.16 16.7322 145.139 16.6585C145.141 16.6316 145.141 16.6046 145.139 16.5777L145.108 16.3319V16.2792C145.108 16.1914 145.08 16.1036 145.062 16.0158V15.9877C145.045 15.8929 145.023 15.8016 144.999 15.7068C144.842 15.0676 144.592 14.4548 144.258 13.8878C144.533 13.2674 144.713 12.6092 144.792 11.9353C144.792 11.8124 144.816 11.693 144.823 11.5841C144.83 11.4753 144.823 11.4296 144.823 11.3524C144.823 11.2751 144.823 11.2751 144.823 11.24C144.823 11.1382 144.823 11.0363 144.823 10.938C144.822 10.9275 144.822 10.9169 144.823 10.9064C144.773 9.2188 144.098 7.6099 142.931 6.39043C143.065 6.16786 143.176 5.93261 143.264 5.6881V5.6881C143.292 5.61436 143.317 5.54061 143.338 5.46335C143.359 5.38961 143.38 5.31938 143.398 5.24563V5.22808L143.44 5.02791C143.438 5.01629 143.438 5.00442 143.44 4.99279C143.44 4.91554 143.464 4.83477 143.475 4.754C143.485 4.67324 143.475 4.58896 143.496 4.50819C143.496 4.48361 143.496 4.45551 143.496 4.43093C143.496 4.40635 143.496 4.31505 143.496 4.25886V4.17458C143.496 4.1184 143.496 4.0587 143.496 4.00251C143.496 3.94633 143.496 3.95335 143.496 3.92877C143.437 2.88551 142.987 1.90288 142.235 1.17674C141.484 0.450599 140.486 0.0342963 139.442 0.0108156C138.397 -0.012665 137.382 0.358401 136.599 1.05005C135.815 1.74169 135.321 2.70311 135.215 3.74265C135.165 4.16711 135.178 4.59677 135.254 5.01738C134.233 5.51532 133.353 6.26125 132.695 7.18696C132.037 8.11267 131.621 9.18862 131.486 10.3164C131.442 10.694 131.429 11.0745 131.447 11.4542C130.842 12.405 130.48 13.4906 130.394 14.6147V14.6147C130.394 14.6568 130.394 14.699 130.394 14.7411C130.394 14.8816 130.376 15.0255 130.376 15.166C130.373 16.2061 130.608 17.2331 131.063 18.1686C131.517 19.104 132.18 19.9232 133 20.5634C133.342 21.1168 133.794 21.5947 134.327 21.968C134.423 22.254 134.495 22.5477 134.541 22.846C134.58 23.2469 134.528 23.6514 134.388 24.0292C134.248 24.4069 134.024 24.748 133.734 25.0267C133.583 25.1531 133.414 25.2585 133.256 25.3778C133.096 25.3323 132.927 25.3323 132.768 25.3778C130.956 25.9467 129.221 27.074 128.389 28.7982C128.204 29.1904 128.058 29.5997 127.953 30.0202L127.855 30.1712C126.754 31.8937 125.963 33.7951 125.516 35.7898C125.288 36.8117 125.144 37.8722 124.667 38.8028C124.552 38.997 124.459 39.2031 124.389 39.4174C124.349 39.7446 124.334 40.0746 124.347 40.4041C124.298 41.0011 123.95 41.5314 123.834 42.1178C123.764 42.469 123.778 42.8201 123.718 43.1713C123.551 43.7746 123.331 44.3621 123.062 44.9271C122.689 45.9595 122.693 47.0938 122.416 48.1578C122.382 48.3331 122.307 48.4979 122.198 48.6389C121.978 48.8102 121.731 48.9431 121.467 49.0322C121.274 49.1532 121.109 49.3137 120.983 49.5031C120.856 49.6926 120.771 49.9067 120.733 50.1314C120.66 50.5844 120.652 51.0455 120.709 51.5009L120.846 53.2813L118.851 53.8853L115.578 54.8861C114.619 55.1287 113.703 55.5159 112.86 56.0344C112.11 56.5574 111.517 57.2765 111.147 58.1133C110.815 58.9858 110.601 59.8987 110.511 60.8278C110.195 63.4272 109.632 65.9906 108.829 68.4832C108.762 68.6728 108.692 68.8659 108.622 69.0556L108.401 69.6139C108.383 69.6526 108.365 69.6912 108.351 69.7298L108.162 70.1758C108.078 70.3654 107.99 70.5515 107.898 70.7376L115.564 73.2941C115.564 73.3854 115.582 73.4837 115.596 73.5926C115.863 75.4748 115.733 77.3852 115.979 79.2709C116.01 79.5844 116.082 79.8924 116.193 80.1875C115.998 80.356 115.858 80.5784 115.789 80.8266C115.702 81.2282 115.689 81.6423 115.75 82.0486C115.838 83.0108 115.923 83.973 116.01 84.9352C116.052 85.2851 116.052 85.6388 116.01 85.9887C115.915 86.6243 115.55 87.1826 115.35 87.7901C115.15 88.3977 115.16 89.1772 115.663 89.546C115.838 89.6658 116.041 89.7387 116.252 89.7577C116.464 89.7768 116.677 89.7414 116.871 89.6548C117.258 89.4769 117.6 89.214 117.871 88.8858C119.413 87.1721 120.105 84.8579 121.302 82.8809C121.611 82.4251 121.885 81.9474 122.124 81.4516C122.289 81.0689 122.394 80.6615 122.528 80.2647C122.712 79.7363 122.933 79.2212 123.188 78.7231C123.332 78.4387 123.89 77.7539 123.764 77.4379C123.567 76.8935 121.464 76.416 120.955 76.2474C120.63 76.1025 120.262 76.0861 119.926 76.2017C119.875 76.226 119.828 76.2567 119.785 76.2931L119.606 73.9719C119.919 73.9438 120.228 73.9051 120.533 73.8525C120.533 73.417 120.523 72.9781 120.502 72.5356C120.502 72.1353 120.484 71.7314 120.474 71.3276C120.453 70.3443 120.431 69.3611 120.407 68.3954C120.4 67.8262 120.364 67.2577 120.298 66.6922C120.179 65.8319 119.915 64.9891 119.831 64.1217C119.958 64.0212 120.107 63.9537 120.266 63.9251V63.9251C120.513 63.8857 120.763 63.8762 121.011 63.897H121.208C122.297 63.881 123.365 63.586 124.308 63.0401C125.274 62.538 126.169 61.9094 127.118 61.3932L127.469 61.2071L127.602 61.1403L127.827 61.028L128.013 60.9402L128.055 60.9191C128.614 60.6522 129.179 60.3924 129.72 60.1009C129.756 60.1604 129.796 60.2179 129.839 60.273C129.97 60.4514 130.151 60.5871 130.359 60.6627C130.568 60.7383 130.793 60.7506 131.009 60.6979C130.345 62.2957 129.565 63.8408 129.369 65.5685C129.081 68.0653 130.071 70.4848 131.058 72.8095L134.18 80.184C134.531 80.9987 134.984 81.9117 135.837 82.1048C136.379 82.1779 136.93 82.0679 137.403 81.7923C138.832 81.111 140.118 80.1348 141.428 79.2218L141.48 79.2639C142.664 80.198 143.405 81.5008 144.223 82.7474L146.411 86.3434C146.395 86.5235 146.426 86.7046 146.498 86.8701C146.658 87.1679 146.866 87.4372 147.113 87.6672C148.503 89.1648 149.42 91.0403 149.747 93.0576C149.775 93.5742 149.924 94.0769 150.182 94.5255C150.769 95.3402 152.019 95.2875 152.9 94.824C153.172 94.6994 153.407 94.5057 153.581 94.2621C153.729 94.0003 153.822 93.7112 153.855 93.4123C154.016 92.6688 154.104 91.9114 154.119 91.1508C154.105 89.7707 153.574 88.3977 153.321 86.9825ZM140.76 20.8162C140.914 20.7154 141.061 20.6063 141.203 20.4896C140.906 21.3812 140.428 22.2014 139.798 22.8986V22.8986C139.651 23.0602 139.493 23.2112 139.331 23.3587V23.2463C139.314 22.8951 139.331 22.5053 139.331 22.1331C139.894 21.7985 140.381 21.35 140.76 20.8162V20.8162ZM128.361 48.5265L128.382 48.4598C128.506 48.5496 128.614 48.6601 128.701 48.7864C128.616 48.9749 128.576 49.1808 128.585 49.3875C128.593 49.5941 128.65 49.796 128.751 49.9769C128.933 50.2859 129.263 50.5738 129.193 50.9285C129.123 51.2832 128.673 51.4236 128.308 51.4833C127.827 51.5606 127.353 51.6484 126.879 51.7432C126.879 51.7432 126.879 51.7432 126.879 51.7186C126.889 51.3229 126.836 50.928 126.721 50.5493C127.539 50.1981 128.045 49.3623 128.361 48.5265Z" fill="url(#paint0_linear)"/>
<path d="M142.976 7.64442C143.291 7.11101 143.484 6.51403 143.539 5.89693C143.595 5.27982 143.512 4.65811 143.297 4.07704C143.082 3.49596 142.74 2.97014 142.296 2.53782C141.852 2.1055 141.318 1.77757 140.731 1.57788C140.145 1.3782 139.521 1.31178 138.905 1.38346C138.29 1.45514 137.698 1.66312 137.173 1.99226C136.648 2.32141 136.203 2.76343 135.871 3.28619C135.538 3.80894 135.326 4.39926 135.251 5.01421C135.198 5.4339 135.211 5.85919 135.289 6.27488C134.096 6.8403 133.097 7.74709 132.42 8.88043C131.742 10.0138 131.416 11.3227 131.483 12.6415C130.918 13.516 130.565 14.5099 130.452 15.5446C130.338 16.5792 130.467 17.6261 130.829 18.6021C131.19 19.5782 131.774 20.4567 132.534 21.1678C133.294 21.879 134.209 22.4033 135.207 22.6991C136.205 22.995 137.258 23.0543 138.283 22.8724C139.308 22.6904 140.276 22.2722 141.111 21.6509C141.946 21.0296 142.625 20.2223 143.094 19.293C143.563 18.3637 143.809 17.3379 143.812 16.2971C143.812 16.1882 143.812 16.0829 143.812 15.9775C144.642 14.7019 145.013 13.1819 144.864 11.6675C144.715 10.1531 144.056 8.73433 142.994 7.64442H142.976Z" fill="#46455B"/>
<g opacity="0.1">
<path opacity="0.1" d="M135.24 5.22579L135.298 5.19321C135.284 5.11899 135.273 5.04407 135.266 4.96875C135.264 4.98439 135.264 5.00018 135.266 5.01582C135.253 5.0853 135.245 5.1554 135.24 5.22579V5.22579Z" fill="black"/>
<path opacity="0.1" d="M144.83 12.0364C144.709 13.0551 144.355 14.032 143.794 14.8914C143.794 14.9967 143.794 15.1021 143.794 15.2074C143.786 16.9321 143.113 18.5871 141.916 19.8282C140.718 21.0693 139.088 21.8007 137.365 21.8704C135.642 21.9401 133.958 21.3426 132.664 20.2022C131.37 19.0619 130.566 17.4666 130.419 15.7482C130.419 15.9308 130.394 16.0994 130.394 16.296C130.394 18.073 131.1 19.7773 132.356 21.0338C133.613 22.2903 135.317 22.9962 137.094 22.9962C138.871 22.9962 140.575 22.2903 141.832 21.0338C143.089 19.7773 143.794 18.073 143.794 16.296C143.794 16.1872 143.794 16.0818 143.794 15.9765C144.356 15.1177 144.71 14.1405 144.83 13.1215C144.886 12.6729 144.894 12.2198 144.855 11.7695C144.865 11.8573 144.844 11.9486 144.83 12.0364Z" fill="black"/>
<path opacity="0.1" d="M143.527 4.96484C143.454 5.5282 143.266 6.07066 142.976 6.55913C143.095 6.67852 143.204 6.80494 143.327 6.93136C143.434 6.63509 143.507 6.3276 143.545 6.01482C143.585 5.66556 143.579 5.31258 143.527 4.96484V4.96484Z" fill="black"/>
</g>
<path d="M115.978 79.5282C116.01 79.9094 116.114 80.2811 116.284 80.6238C116.37 80.7951 116.495 80.9434 116.649 81.0564C116.804 81.1694 116.983 81.2438 117.172 81.2735C117.52 81.2756 117.86 81.1768 118.152 80.989C118.746 80.6765 119.367 80.3148 119.676 79.7178C119.985 79.1208 119.936 78.4536 119.883 77.8039L119.483 72.6945C118.521 72.6664 117.552 72.6664 116.586 72.7191C115.62 72.7717 115.462 72.9965 115.596 73.9306C115.859 75.7847 115.719 77.6705 115.978 79.5282Z" fill="#FBBEBE"/>
<path d="M144.29 82.9797L146.583 86.688C146.682 86.9043 146.863 87.0732 147.085 87.1585C147.249 87.1832 147.417 87.1536 147.563 87.0743C148.305 86.6854 148.957 86.1445 149.476 85.487C149.892 85.1001 150.208 84.6181 150.396 84.0823C150.471 83.7852 150.468 83.4741 150.388 83.1784C150.308 82.8827 150.154 82.6124 149.94 82.3933C149.674 82.1571 149.386 81.9477 149.08 81.7682C147.264 80.5426 146.446 78.2179 144.655 76.9608C144.555 76.8764 144.433 76.8217 144.304 76.8027C144.171 76.8121 144.043 76.8556 143.932 76.9291L141.473 78.2706C140.42 78.85 140.746 78.9202 141.554 79.5453C142.731 80.4654 143.461 81.7506 144.29 82.9797Z" fill="#FBBEBE"/>
<path d="M120.962 76.5711C120.635 76.4296 120.268 76.4171 119.933 76.536C119.784 76.6263 119.658 76.7496 119.565 76.8964C119.472 77.0431 119.414 77.2094 119.395 77.3823C119.332 77.7335 119.339 78.0846 119.244 78.4112C119.033 78.9553 118.689 79.4381 118.244 79.8159C118.076 80.0143 117.859 80.1656 117.615 80.2548C117.281 80.3391 116.93 80.1846 116.593 80.2548C116.397 80.306 116.219 80.4095 116.077 80.5542C115.935 80.699 115.836 80.8795 115.789 81.0765C115.7 81.472 115.687 81.8807 115.75 82.281L116.01 85.1255C116.053 85.4753 116.053 85.8291 116.01 86.179C115.915 86.8075 115.55 87.3554 115.35 87.9558C115.15 88.5563 115.157 89.3219 115.663 89.7117C115.839 89.8294 116.043 89.9007 116.255 89.9191C116.467 89.9375 116.679 89.9024 116.874 89.817C117.261 89.6429 117.603 89.3836 117.875 89.0585C119.42 87.3729 120.112 85.0868 121.313 83.1414C121.62 82.6934 121.894 82.224 122.134 81.7367C122.3 81.3575 122.405 80.9572 122.538 80.5674C122.723 80.0454 122.945 79.5373 123.202 79.0468C123.342 78.7659 123.904 78.0917 123.778 77.7791C123.592 77.2102 121.481 76.7362 120.962 76.5711Z" fill="#46455B"/>
<path d="M148.848 84.4264C148.5 85.0826 147.919 85.5841 147.218 85.8311C147.017 85.8864 146.829 85.9833 146.667 86.1155C146.561 86.2451 146.495 86.4029 146.477 86.5696C146.46 86.7362 146.492 86.9043 146.569 87.0531C146.73 87.3478 146.939 87.6136 147.187 87.8397C148.574 89.3094 149.49 91.1593 149.82 93.1528C149.852 93.6638 150.003 94.1602 150.259 94.6031C150.846 95.4073 152.1 95.3546 152.984 94.8946C153.255 94.7714 153.489 94.5817 153.666 94.3433C153.814 94.0852 153.907 93.7996 153.94 93.504C154.101 92.7712 154.189 92.0243 154.203 91.2741C154.203 89.8695 153.655 88.5034 153.402 87.1128C153.051 85.1358 153.22 83.0042 152.3 81.2203C152.213 81.0068 152.071 80.8201 151.889 80.6795C151.658 80.5579 151.398 80.4998 151.137 80.5109C150.309 80.4793 149.473 80.4723 148.641 80.4899C148.409 80.4899 148.135 80.525 148.016 80.7251C147.974 80.8369 147.96 80.9572 147.976 81.0755C147.992 81.1937 148.037 81.3062 148.107 81.4029C148.616 82.4107 149.452 83.2079 148.848 84.4264Z" fill="#46455B"/>
<path d="M129.091 48.9945C128.859 49.1869 128.702 49.4546 128.647 49.751C128.591 50.0474 128.642 50.3538 128.789 50.6169C128.975 50.9224 129.306 51.2068 129.232 51.558C129.158 51.9092 128.712 52.0426 128.347 52.1023C125.123 52.615 121.984 53.5596 118.865 54.5007L115.586 55.4875C114.625 55.7246 113.707 56.1058 112.861 56.6183C112.111 57.1295 111.518 57.8381 111.147 58.6655C110.814 59.5245 110.599 60.4246 110.508 61.3414C110.016 64.695 109.388 68.0767 107.892 71.1178L115.838 73.7269C116.61 74.0093 117.409 74.2094 118.223 74.3239C118.998 74.3901 119.779 74.3523 120.544 74.2116C120.495 72.4382 120.463 70.6086 120.414 68.8317C120.41 68.2706 120.373 67.7102 120.305 67.1532C120.186 66.3033 119.922 65.4746 119.838 64.6178C120.189 64.3158 120.741 64.393 121.215 64.4036C122.306 64.3888 123.376 64.1002 124.326 63.5643C125.288 63.0656 126.187 62.4476 127.135 61.9384C128.733 61.0921 130.552 60.5337 131.774 59.1888C131.153 61.5591 129.667 63.624 129.397 66.0575C129.126 68.4911 130.099 70.9212 131.093 73.1932L134.222 80.4552C134.573 81.2559 135.026 82.1584 135.879 82.348C136.422 82.4189 136.973 82.3104 137.449 82.039C140.329 80.6905 142.632 78.1516 145.708 77.3439C145.477 75.8199 144.276 74.5592 143.601 73.1791C143.026 72.0168 142.839 70.7034 142.457 69.4638C142.074 68.2242 141.403 66.9635 140.258 66.3736C139.707 66.0962 138.966 65.8503 138.917 65.2358C138.912 65.038 138.954 64.8419 139.04 64.6634C139.451 63.6268 140.091 62.6964 140.912 61.9419C141.016 61.859 141.1 61.7533 141.157 61.6329C141.184 61.5178 141.19 61.3989 141.175 61.2817C141.115 60.2914 141.645 59.3679 142.228 58.5707C142.811 57.7736 143.503 57.0186 143.837 56.088C144.409 54.4832 143.837 52.7203 143.275 51.1155C143.09 50.4496 142.77 49.8291 142.334 49.293C141.596 48.5064 140.451 48.2781 139.377 48.1587C135.918 47.7654 131.848 46.8559 129.091 48.9945Z" fill="#46455B"/>
<g opacity="0.1">
<path opacity="0.1" d="M142.239 56.0203C141.649 56.8174 141.119 57.741 141.186 58.7313C141.201 58.8484 141.195 58.9674 141.168 59.0825C141.111 59.2029 141.027 59.3086 140.922 59.3915C140.101 60.146 139.461 61.0764 139.05 62.113C138.965 62.2915 138.923 62.4876 138.928 62.6854C138.964 62.8713 139.048 63.0446 139.171 63.1886C139.294 63.3325 139.452 63.4423 139.63 63.5071C139.987 62.9226 140.425 62.3907 140.929 61.9269C141.034 61.844 141.118 61.7383 141.175 61.6179C141.202 61.5028 141.208 61.3838 141.193 61.2667C141.133 60.2764 141.663 59.3528 142.246 58.5557C142.829 57.7586 143.521 57.0036 143.854 56.073C144.142 55.1624 144.171 54.1898 143.939 53.2637C143.915 53.355 143.887 53.4463 143.854 53.5376C143.514 54.4682 142.833 55.2267 142.239 56.0203Z" fill="black"/>
<path opacity="0.1" d="M128.729 49.4747C128.846 49.4512 128.954 49.3967 129.043 49.317C129.131 49.2373 129.196 49.1353 129.232 49.0217C129.239 48.9763 129.239 48.9302 129.232 48.8848L129.081 48.9936C128.926 49.1226 128.805 49.2879 128.729 49.4747V49.4747Z" fill="black"/>
<path opacity="0.1" d="M118.223 71.7873C117.409 71.6728 116.61 71.4727 115.838 71.1904L108.815 68.8867C108.549 69.6479 108.239 70.3926 107.884 71.1166L115.838 73.7258C116.61 74.0081 117.409 74.2082 118.223 74.3227C118.998 74.3889 119.778 74.3511 120.544 74.2104C120.519 73.3781 120.502 72.5318 120.481 71.6855C119.736 71.8176 118.976 71.8518 118.223 71.7873V71.7873Z" fill="black"/>
<path opacity="0.1" d="M137.459 79.5031C136.984 79.7745 136.433 79.883 135.89 79.8121C135.036 79.6225 134.576 78.72 134.232 77.9193L131.103 70.6573C130.401 69.0595 129.716 67.3985 129.463 65.6953C129.442 65.8147 129.425 65.9341 129.407 66.0465C129.123 68.5046 130.109 70.9101 131.103 73.1821L134.232 80.4442C134.583 81.2448 135.036 82.1473 135.89 82.337C136.433 82.4079 136.984 82.2994 137.459 82.0279C140.339 80.6795 142.642 78.1406 145.719 77.3329C145.559 76.5353 145.237 75.7789 144.774 75.11C142.154 76.1389 140.037 78.2916 137.459 79.5031Z" fill="black"/>
<path opacity="0.1" d="M131.785 56.6523C130.563 57.9868 128.744 58.5557 127.146 59.402C126.187 59.9111 125.288 60.5292 124.337 61.0278C123.386 61.5648 122.316 61.8546 121.225 61.8706C120.751 61.8706 120.217 61.7793 119.849 62.0813C119.926 62.8714 120.154 63.6405 120.284 64.4236C120.596 64.3814 120.912 64.3744 121.225 64.4025C122.316 64.3878 123.386 64.0992 124.337 63.5632C125.299 63.0646 126.198 62.4465 127.146 61.9373C128.199 61.379 129.348 60.9436 130.359 60.3255C130.921 59.1365 131.397 57.909 131.785 56.6523V56.6523Z" fill="black"/>
</g>
<path d="M134.573 23.8598C134.612 24.2554 134.559 24.6546 134.419 25.0267C134.279 25.3987 134.055 25.7335 133.765 26.0054C133.572 26.1705 133.344 26.2934 133.158 26.4655C132.991 26.6367 132.863 26.8424 132.783 27.0682C132.703 27.294 132.674 27.5344 132.696 27.7728C132.719 28.0111 132.794 28.2416 132.914 28.4483C133.035 28.6549 133.2 28.8327 133.397 28.9693C134.029 29.3555 134.833 29.2502 135.563 29.1238C136.537 28.9894 137.492 28.7407 138.408 28.3828C139.329 28.0217 140.113 27.379 140.648 26.5462C140.264 26.3007 139.946 25.9638 139.723 25.5654C139.501 25.1671 139.381 24.7198 139.373 24.2637C139.324 23.3541 139.574 22.3217 138.998 21.6159C138.422 20.91 137.4 20.9417 136.54 21.1734C136.115 21.2928 135.704 21.4544 135.279 21.5702C135.061 21.6264 134.352 21.6299 134.225 21.788C133.98 22.0759 134.548 23.3998 134.573 23.8598Z" fill="#FBBEBE"/>
<path opacity="0.1" d="M134.573 23.8598C134.612 24.2554 134.559 24.6546 134.419 25.0267C134.279 25.3987 134.055 25.7335 133.765 26.0054C133.572 26.1705 133.344 26.2934 133.158 26.4655C132.991 26.6367 132.863 26.8424 132.783 27.0682C132.703 27.294 132.674 27.5344 132.696 27.7728C132.719 28.0111 132.794 28.2416 132.914 28.4483C133.035 28.6549 133.2 28.8327 133.397 28.9693C134.029 29.3555 134.833 29.2502 135.563 29.1238C136.537 28.9894 137.492 28.7407 138.408 28.3828C139.329 28.0217 140.113 27.379 140.648 26.5462C140.264 26.3007 139.946 25.9638 139.723 25.5654C139.501 25.1671 139.381 24.7198 139.373 24.2637C139.324 23.3541 139.574 22.3217 138.998 21.6159C138.422 20.91 137.4 20.9417 136.54 21.1734C136.115 21.2928 135.704 21.4544 135.279 21.5702C135.061 21.6264 134.352 21.6299 134.225 21.788C133.98 22.0759 134.548 23.3998 134.573 23.8598Z" fill="black"/>
<path d="M137.014 23.8127C139.615 23.8127 141.723 21.7044 141.723 19.1036C141.723 16.5029 139.615 14.3945 137.014 14.3945C134.413 14.3945 132.305 16.5029 132.305 19.1036C132.305 21.7044 134.413 23.8127 137.014 23.8127Z" fill="#FBBEBE"/>
<path d="M122.145 55.2237C122.062 55.5986 121.913 55.9555 121.703 56.2771C121.152 57.2519 120.954 58.3865 121.141 59.4903C121.24 60.0375 121.472 60.5519 121.816 60.988C122.161 61.4241 122.608 61.7685 123.118 61.9906C123.331 62.0967 123.568 62.1448 123.805 62.13C124.043 62.1152 124.272 62.038 124.47 61.9063C123.841 61.0881 123.806 59.9714 123.845 58.939C123.834 58.7465 123.879 58.5549 123.975 58.3876C124.001 58.3484 124.035 58.3149 124.075 58.2891C124.114 58.2633 124.159 58.2458 124.205 58.2376C124.252 58.2294 124.3 58.2307 124.346 58.2414C124.392 58.2521 124.435 58.272 124.474 58.2998C124.456 58.9502 124.582 59.5964 124.842 60.1926C124.941 60.4209 125.109 60.6737 125.362 60.6667C125.713 60.6667 125.815 60.1715 125.801 59.8134C125.748 58.3525 125.674 56.832 124.972 55.5537C124.663 55.1154 124.426 54.6306 124.27 54.1175C124.265 53.9348 124.2 53.7587 124.087 53.6153C124.01 53.5543 123.92 53.5123 123.824 53.4924C123.42 53.3765 122.458 53.0219 122.124 53.4011C121.791 53.7804 122.208 54.739 122.145 55.2237Z" fill="#FBBEBE"/>
<path d="M129.137 30.2106C128.596 30.1473 128.171 30.6425 127.876 31.099C126.773 32.7979 125.979 34.6787 125.53 36.6544C125.302 37.6622 125.162 38.7087 124.681 39.6253C124.566 39.8158 124.473 40.0183 124.403 40.2293C124.364 40.5531 124.35 40.8795 124.361 41.2055C124.312 41.7919 123.964 42.3152 123.848 42.8946C123.778 43.2457 123.792 43.5969 123.729 43.9481C123.624 44.5521 123.29 45.0929 123.076 45.6723C122.7 46.6907 122.704 47.8074 122.426 48.8573C122.392 49.0294 122.318 49.1908 122.208 49.3279C122.022 49.5351 121.72 49.5842 121.478 49.7177C121.285 49.8355 121.119 49.9933 120.992 50.1805C120.865 50.3676 120.779 50.5798 120.741 50.8028C120.667 51.2487 120.659 51.7029 120.716 52.1513L120.934 54.936C121.155 54.8412 121.285 54.5848 121.489 54.4338C121.84 54.1529 122.328 54.2161 122.763 54.2934L123.399 54.4092C124.049 54.5251 124.754 54.6761 125.155 55.1888C125.485 54.6691 125.299 53.9071 125.804 53.5629C125.969 53.4506 126.177 53.4154 126.349 53.3171C126.513 53.2108 126.649 53.0666 126.745 52.8967C126.842 52.7268 126.896 52.5362 126.903 52.3409C126.914 51.9497 126.861 51.5595 126.745 51.1856C127.56 50.8344 128.066 50.0162 128.385 49.1909C128.735 48.1919 128.989 47.1619 129.144 46.1147C129.878 41.9745 130.549 37.8062 130.619 33.6028C130.665 32.9007 130.588 32.1958 130.391 31.5204C130.173 30.8532 129.836 30.2878 129.137 30.2106Z" fill="#FFD32A"/>
<path opacity="0.1" d="M129.137 30.2106C128.596 30.1473 128.171 30.6425 127.876 31.099C126.773 32.7979 125.979 34.6787 125.53 36.6544C125.302 37.6622 125.162 38.7087 124.681 39.6253C124.566 39.8158 124.473 40.0183 124.403 40.2293C124.364 40.5531 124.35 40.8795 124.361 41.2055C124.312 41.7919 123.964 42.3152 123.848 42.8946C123.778 43.2457 123.792 43.5969 123.729 43.9481C123.624 44.5521 123.29 45.0929 123.076 45.6723C122.7 46.6907 122.704 47.8074 122.426 48.8573C122.392 49.0294 122.318 49.1908 122.208 49.3279C122.022 49.5351 121.72 49.5842 121.478 49.7177C121.285 49.8355 121.119 49.9933 120.992 50.1805C120.865 50.3676 120.779 50.5798 120.741 50.8028C120.667 51.2487 120.659 51.7029 120.716 52.1513L120.934 54.936C121.155 54.8412 121.285 54.5848 121.489 54.4338C121.84 54.1529 122.328 54.2161 122.763 54.2934L123.399 54.4092C124.049 54.5251 124.754 54.6761 125.155 55.1888C125.485 54.6691 125.299 53.9071 125.804 53.5629C125.969 53.4506 126.177 53.4154 126.349 53.3171C126.513 53.2108 126.649 53.0666 126.745 52.8967C126.842 52.7268 126.896 52.5362 126.903 52.3409C126.914 51.9497 126.861 51.5595 126.745 51.1856C127.56 50.8344 128.066 50.0162 128.385 49.1909C128.735 48.1919 128.989 47.1619 129.144 46.1147C129.878 41.9745 130.549 37.8062 130.619 33.6028C130.665 32.9007 130.588 32.1958 130.391 31.5204C130.173 30.8532 129.836 30.2878 129.137 30.2106Z" fill="black"/>
<path d="M141.003 25.7012C140.226 26.516 139.233 27.0932 138.141 27.3657C137.053 27.6339 135.942 27.7974 134.822 27.8538C134.479 27.9097 134.126 27.8796 133.797 27.766C133.635 27.7035 133.502 27.583 133.423 27.428C133.345 27.273 133.327 27.0944 133.372 26.9267C133.432 26.8259 133.473 26.7153 133.495 26.6001C133.495 26.3122 133.067 26.2876 132.793 26.3719C130.981 26.9338 129.242 28.0434 128.407 29.7466C127.985 30.7338 127.722 31.7815 127.627 32.8509C127.234 35.6602 126.84 38.4941 127.367 41.2788C127.652 42.7572 128.192 44.1934 128.224 45.6964C128.245 46.5392 128.101 47.3785 128.108 48.2213C128.084 48.5164 128.164 48.8106 128.333 49.0535C128.463 49.2045 128.66 49.2994 128.751 49.4784C128.902 49.7734 128.698 50.1808 128.898 50.4512C129.148 50.7813 129.66 50.5425 130.001 50.3107C131.71 49.1511 133.773 48.6324 135.827 48.8464C138.285 49.1097 140.743 50.4266 143.138 49.7664C143.014 49.5875 142.909 49.397 142.822 49.1975C141.628 45.2785 141.709 40.8925 143.496 37.2053C144.104 35.9446 144.901 34.7471 145.147 33.3636C145.241 32.7179 145.249 32.0625 145.171 31.4146C145.088 30.1516 144.709 28.9259 144.065 27.8362C143.387 26.7582 142.26 25.8276 141.003 25.7012Z" fill="#FFD32A"/>
<path d="M129.615 56.4349C129.424 56.948 129.332 57.4925 129.344 58.0397C129.328 58.5618 129.354 59.0844 129.421 59.6024C129.463 60.0457 129.621 60.47 129.881 60.8315C130.014 61.0093 130.196 61.144 130.404 61.2184C130.613 61.2927 130.839 61.3035 131.054 61.2493C131.222 61.1786 131.373 61.0712 131.494 60.9352C131.616 60.7991 131.705 60.6377 131.757 60.4627C131.858 60.1105 131.933 59.7514 131.981 59.3882C132.185 58.3347 132.747 57.3163 132.758 56.2277C132.765 56.0985 132.744 55.9692 132.698 55.8484C132.494 55.4025 131.493 54.9003 131.005 54.9741C130.401 55.0689 129.839 55.9187 129.615 56.4349Z" fill="#FBBEBE"/>
<path opacity="0.1" d="M143.201 29.6777C143.11 30.6153 144.016 31.3212 144.374 32.1886C144.519 32.5952 144.602 33.0214 144.62 33.4527C144.873 36.4482 144.676 39.4576 144.48 42.4531C144.451 43.4506 144.333 44.4437 144.129 45.4204C143.623 47.4677 142.373 49.2446 141.161 50.9653C140.978 51.2471 140.765 51.5085 140.526 51.7449C140.168 52.0347 139.771 52.2713 139.346 52.4472L135.167 54.4734C134.643 54.7044 134.145 54.9904 133.681 55.3267C133.143 55.7483 132.72 56.2991 132.452 56.928C131.641 56.5137 130.798 56.1414 129.994 55.7271C129.805 55.6287 129.59 55.5023 129.559 55.2916C129.517 55.0107 129.812 54.8105 130.015 54.5893C130.395 54.2135 130.51 53.6552 130.718 53.1636C131.392 51.5482 133.081 50.5158 133.692 48.8794C133.927 48.2508 133.997 47.5379 134.415 47.0112C134.653 46.7472 134.921 46.5116 135.212 46.3088C135.853 45.7624 136.441 45.1569 136.968 44.5004C137.208 44.2527 137.403 43.9666 137.548 43.6541C137.682 43.1722 137.728 42.6703 137.685 42.1721C137.716 40.5357 138.457 39.0117 138.91 37.4385C139.335 35.9601 139.514 34.4079 140.073 32.9717C140.631 31.5354 141.706 30.064 143.201 29.6777Z" fill="black"/>
<path d="M143.745 29.6777C143.654 30.6153 144.556 31.3212 144.915 32.1886C145.061 32.595 145.145 33.0212 145.164 33.4527C145.413 36.4482 145.22 39.4576 145.023 42.4531C144.989 43.4512 144.866 44.4442 144.655 45.4204C144.149 47.4677 142.899 49.2446 141.687 50.9653C141.504 51.2471 141.291 51.5085 141.052 51.7449C140.694 52.0347 140.297 52.2713 139.872 52.4472L135.689 54.4734C135.166 54.7059 134.668 54.9919 134.204 55.3267C133.667 55.7492 133.244 56.2998 132.975 56.928C132.164 56.5137 131.325 56.1414 130.517 55.7271C130.327 55.6287 130.113 55.5023 130.081 55.2916C130.036 55.0107 130.331 54.8105 130.534 54.5893C130.917 54.2135 131.033 53.6552 131.237 53.1636C131.907 51.5482 133.6 50.5158 134.211 48.8794C134.446 48.2508 134.517 47.5379 134.934 47.0112C135.171 46.7456 135.438 46.5097 135.732 46.3088C136.372 45.7624 136.96 45.1569 137.487 44.5004C137.727 44.2527 137.922 43.9666 138.067 43.6541C138.199 43.1719 138.245 42.6703 138.204 42.1721C138.235 40.5357 138.973 39.0117 139.426 37.4385C139.854 35.9601 140.03 34.4079 140.588 32.9717C141.147 31.5354 142.256 30.064 143.745 29.6777Z" fill="#FFD32A"/>
<path d="M139.345 11.8241C137.895 11.6479 136.427 11.9526 135.167 12.6915C135.353 12.6915 135.539 12.6915 135.725 12.7336C137.118 12.902 138.423 13.5035 139.456 14.4534C140.489 15.4032 141.198 16.6534 141.482 18.0276C141.767 19.4018 141.612 20.8306 141.041 22.1124C140.47 23.3942 139.511 24.4644 138.299 25.1718C140.021 25.2269 141.698 24.6167 142.981 23.4678C144.265 22.319 145.057 20.7198 145.193 19.0024C145.328 17.285 144.797 15.5813 143.71 14.2453C142.622 12.9092 141.062 12.0434 139.352 11.8276L139.345 11.8241Z" fill="#46455B"/>
<path d="M141.406 15.5495C141.57 15.9177 141.658 16.3145 141.667 16.7171C141.676 17.1197 141.606 17.5201 141.459 17.8952C141.427 17.8004 141.392 17.7056 141.35 17.6108C140.521 15.7672 137.972 15.0052 135.651 15.9076C135.034 16.1268 134.47 16.4737 133.996 16.9257C133.522 17.3778 133.149 17.9247 132.901 18.5308C132.311 16.7469 133.509 14.7032 135.711 13.8463C138.028 12.9438 140.578 13.7059 141.406 15.5495Z" fill="#46455B"/>
<g opacity="0.1">
<path opacity="0.1" d="M141.421 17.7528C141.314 16.4593 140.834 15.2247 140.039 14.1986C139.245 13.1726 138.169 12.3993 136.943 11.9727C136.32 12.12 135.722 12.3565 135.167 12.675C135.353 12.675 135.539 12.675 135.725 12.7171C137.073 12.8801 138.339 13.449 139.357 14.3483C140.374 15.2476 141.094 16.435 141.421 17.7528V17.7528Z" fill="black"/>
<path opacity="0.1" d="M142.506 12.8602C142.398 11.567 141.918 10.3327 141.123 9.30686C140.329 8.28098 139.254 7.50749 138.028 7.08008C137.405 7.23569 136.806 7.47926 136.251 7.80347C136.438 7.80347 136.624 7.80347 136.813 7.84561C138.158 8.00733 139.422 8.57325 140.439 9.46859C141.455 10.3639 142.176 11.5466 142.506 12.8602V12.8602Z" fill="black"/>
<path opacity="0.1" d="M142.534 5.55934C142.467 4.7821 142.176 4.04095 141.697 3.42531C141.217 2.80967 140.57 2.34586 139.833 2.08984C139.456 2.18135 139.094 2.32683 138.759 2.52178C138.871 2.52178 138.984 2.52177 139.11 2.54987C139.917 2.64835 140.676 2.98834 141.287 3.52533C141.898 4.06231 142.333 4.77126 142.534 5.55934V5.55934Z" fill="black"/>
<path opacity="0.1" d="M145.042 16.8398C145.171 18.4465 144.718 20.046 143.765 21.3459C142.812 22.6458 141.423 23.5593 139.851 23.9193C139.399 24.4106 138.876 24.8319 138.299 25.1694C139.338 25.2074 140.372 25.003 141.318 24.5725C142.264 24.1421 143.098 23.4973 143.752 22.6892C144.406 21.8811 144.863 20.9319 145.087 19.9167C145.311 18.9015 145.295 17.8481 145.042 16.8398Z" fill="black"/>
</g>
<path d="M204.454 86.9705C204.025 86.6157 203.492 86.4092 202.936 86.382C202.38 86.3548 201.83 86.5083 201.368 86.8195C200.665 87.3392 200.36 88.2031 200.072 89.0178C199.651 90.2223 198.969 91.3917 198.857 92.6664C198.544 96.178 196.083 99.1313 195.345 102.573C195.075 103.802 195.022 105.094 194.513 106.242C194.269 106.746 193.987 107.231 193.67 107.693C192.435 109.634 191.378 111.683 190.51 113.813C189.899 114 189.397 114.586 188.908 115.053C188.282 115.652 187.533 116.107 186.714 116.387C186.379 116.462 186.068 116.615 185.804 116.833C185.453 117.206 185.453 117.806 185.161 118.238C184.954 118.521 184.679 118.747 184.361 118.895C184.339 118.795 184.323 118.694 184.312 118.593C184.238 118.056 184.178 117.518 184.122 116.981C184.94 115.788 185.305 114.342 185.153 112.904C185.002 111.466 184.342 110.128 183.293 109.132C183.228 108.294 183.253 107.451 183.367 106.618C183.419 106.418 183.413 106.207 183.351 106.01C183.289 105.812 183.173 105.636 183.016 105.501C182.844 105.393 182.633 105.368 182.451 105.277C182.186 105.099 181.961 104.868 181.79 104.599C181.297 104.04 180.621 103.673 179.884 103.564C179.146 103.455 178.393 103.61 177.759 104.002C176.776 104.659 176.256 105.824 175.417 106.664C174.981 107.096 174.465 107.436 174.033 107.868C173.169 108.794 172.608 109.962 172.425 111.215C172.245 112.461 172.194 113.723 172.274 114.979C172.265 115.36 172.32 115.74 172.435 116.103C172.561 116.401 172.734 116.676 172.948 116.918C173.977 118.26 175.337 119.311 176.895 119.969C176.906 120.044 176.912 120.119 176.913 120.194C176.913 120.31 176.913 120.426 176.885 120.545L176.712 120.517C176.08 120.44 175.413 120.517 174.827 120.275C173.826 119.843 173.422 118.572 172.435 118.073C172.353 118.03 172.268 117.995 172.179 117.968C171.945 116.331 171.463 114.74 170.75 113.248C170.399 112.546 170.002 111.815 169.96 111.022C169.981 110.284 170.147 109.557 170.448 108.883C171.242 106.471 171.868 104.007 172.323 101.509C172.641 99.9425 172.962 98.3763 173.285 96.8101C173.721 96.4137 174.106 95.9642 174.43 95.4722C175.107 94.4936 175.503 93.3483 175.575 92.1607C175.606 91.5685 175.52 90.9759 175.321 90.4172C175.122 89.8585 174.814 89.3447 174.416 88.9054C174.24 88.6914 174.02 88.5178 173.771 88.3966C173.522 88.2754 173.25 88.2094 172.973 88.2031C172.734 88.2313 172.504 88.3081 172.296 88.4289C172.088 88.5497 171.907 88.7119 171.765 88.9054C171.336 89.5059 171.026 90.183 170.852 90.9C170.5 92.0659 170.149 93.2809 170.307 94.4889C170.451 95.4897 170.939 96.5748 170.441 97.4528C168.797 100.329 167.663 103.563 166.444 106.646C166.13 107.386 165.874 108.149 165.679 108.929C165.435 110.185 165.392 111.473 165.553 112.742C165.842 115.124 166.3 117.481 166.926 119.797C167.182 120.851 167.484 121.964 168.088 122.831C167.874 124.008 167.822 125.208 167.933 126.399C167.948 126.674 168.019 126.944 168.144 127.189C168.346 127.472 168.59 127.722 168.868 127.93C169.244 128.281 169.542 128.708 169.74 129.183C169.938 129.657 170.032 130.169 170.016 130.683C170.033 131.645 170.219 132.596 170.567 133.493C171.406 135.996 172.249 138.5 172.983 141.039C173.142 141.509 173.23 142 173.243 142.497C173.243 143.199 172.909 143.901 173.064 144.603C173.182 144.921 173.278 145.246 173.352 145.576C173.357 145.831 173.324 146.086 173.254 146.331C172.797 148.315 171.477 152.891 171.705 154.917L172.158 154.759C171.965 157.442 171.136 160.069 170.834 162.752C170.636 164.705 170.657 166.674 170.897 168.623C171.028 169.494 171.103 170.373 171.122 171.253C171.122 172.043 170.996 172.823 170.964 173.61C170.948 174.666 171.01 175.723 171.15 176.77C171.288 178.413 171.549 180.044 171.933 181.648C172.664 184.373 172.172 187.21 172.253 190.034C172.347 192.003 172.327 193.976 172.193 195.944C172.119 196.776 172.003 197.605 171.979 198.44C171.905 200.92 172.639 203.388 172.379 205.853C172.256 207.009 171.961 208.312 172.688 209.221C172.92 209.506 173.232 209.709 173.478 209.98C173.612 210.105 173.71 210.264 173.764 210.439C173.818 210.615 173.824 210.801 173.784 210.98C173.689 211.258 173.433 211.462 173.373 211.753C173.306 212.21 173.808 212.526 174.244 212.673L174.367 212.708C174.358 212.861 174.381 213.013 174.435 213.156C174.488 213.299 174.572 213.429 174.679 213.537C174.952 213.745 175.276 213.874 175.617 213.909L181.235 214.998C182.489 215.24 183.852 215.468 185.028 215.043C185.073 215.213 185.165 215.368 185.291 215.489C185.563 215.697 185.886 215.826 186.226 215.862L191.844 216.95C193.277 217.228 194.85 217.484 196.128 216.775C196.497 216.578 196.808 216.289 197.031 215.935C197.21 215.601 197.314 215.231 197.335 214.852C197.357 214.472 197.295 214.093 197.154 213.741C197.046 213.379 196.827 213.061 196.529 212.831C196.13 212.612 195.676 212.514 195.222 212.55C194.837 212.578 194.451 212.519 194.092 212.378C193.981 212.32 193.885 212.239 193.811 212.139C194.092 211.788 194.362 211.437 194.618 211.086C194.376 211.03 194.267 210.696 194.207 210.45C193.484 206.805 194.499 203.076 194.646 199.353C194.721 197.49 194.575 195.624 194.211 193.794C194.074 193.092 193.909 192.425 193.811 191.73C193.294 188.102 194.675 184.418 194.236 180.78C194.028 179.081 194.759 177.304 195.019 175.611C195.247 174.108 195.099 172.577 194.952 171.046L193.79 159.107C193.632 157.495 193.467 155.844 192.778 154.376C192.435 153.556 192.272 152.671 192.301 151.781C193.705 150.977 194.998 149.871 196.585 149.867C196.89 148.709 196.012 145.053 195.5 143.971C193.5 139.707 192.709 134.976 193.214 130.294C193.4 128.611 192.729 126.915 192.954 125.237C192.987 124.844 193.097 124.461 193.277 124.11C193.367 123.936 193.501 123.787 193.664 123.679C193.827 123.57 194.015 123.504 194.211 123.488C194.113 122.48 193.983 121.465 193.811 120.457C194.389 119.868 194.863 119.185 195.215 118.438C195.946 116.911 196.269 115.225 196.694 113.589C197.466 110.706 198.646 107.953 199.58 105.122C200.514 102.292 200.332 99.2999 201.002 96.3922C201.381 94.7904 202.362 93.3958 203.742 92.4978C204.275 92.1467 204.883 91.8763 205.252 91.3566C205.529 90.9293 205.676 90.43 205.673 89.9203C205.705 89.3686 205.611 88.817 205.4 88.3063C205.189 87.7956 204.866 87.339 204.454 86.9705V86.9705ZM182.991 209.836C183.097 209.692 183.198 209.548 183.293 209.397C182.921 209.376 182.451 209.158 182.405 208.786C182.394 208.413 182.435 208.041 182.528 207.68C182.634 207.034 182.594 206.373 182.412 205.745C182.282 205.309 182.089 204.891 181.948 204.456C181.811 203.97 181.702 203.476 181.622 202.977C181.278 201.194 180.742 199.452 180.024 197.784C179.322 196.165 179.866 194.398 179.873 192.632C179.873 191.8 179.747 190.95 179.957 190.142C180.08 189.665 180.308 189.222 180.438 188.738C180.726 187.625 180.365 186.455 180.01 185.363C181.397 182.083 181.583 178.34 181.868 174.772C182.027 172.777 182.186 170.787 182.345 168.802C182.415 167.914 182.496 166.99 182.963 166.232C183.793 168.768 184.287 171.402 184.435 174.066C184.449 174.836 184.539 175.603 184.701 176.356C184.923 177.188 185.355 177.943 185.643 178.751C186.282 180.528 186.215 182.469 186.503 184.334C186.619 185.089 186.794 185.834 186.907 186.589C187.391 189.921 186.608 193.296 185.829 196.572C185.351 198.581 185.428 200.804 185.32 202.865C185.218 204.842 185.112 206.819 185.161 208.8C185.161 209.404 185.2 210.022 185.193 210.636C185.002 210.613 184.81 210.603 184.617 210.605C184.232 210.633 183.846 210.574 183.486 210.433C183.264 210.289 183.091 210.081 182.991 209.836V209.836Z" fill="url(#paint1_linear)"/>
<path d="M195.24 212.573C195.693 212.538 196.147 212.634 196.546 212.85C196.843 213.08 197.062 213.397 197.171 213.756C197.312 214.107 197.373 214.484 197.351 214.86C197.329 215.237 197.225 215.605 197.045 215.937C196.822 216.288 196.511 216.575 196.143 216.769C194.864 217.471 193.291 217.222 191.858 216.948L186.24 215.87C185.901 215.84 185.577 215.719 185.302 215.519C185.131 215.331 185.024 215.095 184.994 214.843C184.965 214.591 185.015 214.336 185.137 214.114C185.382 213.671 185.747 213.306 186.191 213.061C187.806 212.056 189.702 211.656 191.556 211.442C192.259 211.358 192.915 211.133 193.442 211.621C193.723 211.877 193.709 212.197 194.102 212.404C194.464 212.544 194.853 212.601 195.24 212.573Z" fill="#3F3D56"/>
<path d="M184.624 210.641C185.076 210.606 185.528 210.702 185.927 210.918C186.226 211.146 186.445 211.464 186.552 211.824C186.694 212.174 186.756 212.551 186.735 212.928C186.714 213.305 186.609 213.673 186.429 214.005C186.205 214.355 185.894 214.642 185.527 214.837C184.248 215.54 182.675 215.29 181.239 215.016L175.62 213.935C175.282 213.905 174.957 213.784 174.683 213.584C174.511 213.396 174.403 213.16 174.373 212.908C174.343 212.656 174.392 212.401 174.514 212.179C174.767 211.735 175.138 211.371 175.585 211.125C177.197 210.125 179.097 209.738 180.951 209.51C181.653 209.422 182.31 209.201 182.837 209.686C183.114 209.942 183.104 210.262 183.493 210.469C183.853 210.609 184.239 210.668 184.624 210.641V210.641Z" fill="#3F3D56"/>
<path d="M183.241 150.945C179.993 150.958 176.75 151.206 173.538 151.686C173.326 151.706 173.118 151.76 172.924 151.847C172.242 152.199 172.221 153.154 172.239 153.919C172.285 157.034 171.221 160.051 170.869 163.141C170.668 165.081 170.688 167.038 170.929 168.974C171.056 169.84 171.132 170.714 171.154 171.59C171.154 172.369 171.024 173.146 170.992 173.929C170.976 174.973 171.037 176.018 171.175 177.054C171.312 178.687 171.574 180.307 171.958 181.9C172.685 184.607 172.193 187.427 172.27 190.23C172.364 192.186 172.342 194.147 172.204 196.101C172.13 196.93 172.014 197.752 171.99 198.584C171.916 201.042 172.646 203.5 172.386 205.958C172.263 207.103 171.965 208.416 172.692 209.301C172.924 209.582 173.236 209.786 173.478 210.056C173.611 210.181 173.709 210.337 173.763 210.511C173.817 210.684 173.826 210.869 173.788 211.047C173.689 211.324 173.419 211.528 173.377 211.816C173.306 212.269 173.809 212.585 174.244 212.729C175.903 213.238 177.682 213.195 179.314 212.609C180.947 212.022 182.345 210.922 183.301 209.473C182.928 209.452 182.458 209.235 182.412 208.866C182.401 208.496 182.442 208.125 182.535 207.767C182.643 207.126 182.603 206.469 182.419 205.846C182.293 205.41 182.096 204.996 181.959 204.564C181.822 204.082 181.713 203.591 181.633 203.096C181.291 201.323 180.756 199.592 180.038 197.934C179.336 196.326 179.884 194.57 179.891 192.821C179.891 191.992 179.768 191.146 179.975 190.346C180.098 189.868 180.326 189.429 180.46 188.941C180.748 187.835 180.386 186.676 180.031 185.591C181.436 182.332 181.611 178.596 181.896 175.056L182.377 169.086C182.447 168.205 182.532 167.285 182.995 166.533C183.824 169.051 184.319 171.668 184.466 174.315C184.478 175.081 184.566 175.845 184.73 176.594C184.951 177.416 185.379 178.167 185.671 178.971C186.307 180.727 186.24 182.662 186.528 184.516C186.644 185.268 186.816 186.005 186.928 186.757C187.413 190.068 186.626 193.429 185.843 196.677C185.365 198.672 185.439 200.891 185.33 202.931C185.225 204.894 185.12 206.857 185.169 208.824C185.211 210.632 185.351 212.574 184.379 214.091C185.467 214.646 186.591 215.211 187.806 215.317C189.22 215.392 190.615 214.969 191.75 214.123C192.873 213.278 193.849 212.254 194.64 211.092C194.394 211.036 194.288 210.702 194.229 210.46C193.505 206.84 194.524 203.121 194.675 199.434C194.749 197.583 194.604 195.73 194.243 193.913C194.106 193.211 193.937 192.547 193.839 191.859C193.33 188.256 194.71 184.593 194.274 180.973C194.071 179.28 194.801 177.517 195.061 175.832C195.289 174.339 195.145 172.819 194.998 171.316L193.842 159.464C193.688 157.859 193.523 156.219 192.835 154.762C192.013 153.006 192.522 150.843 192.434 148.908C189.534 150.185 186.409 150.877 183.241 150.945V150.945Z" fill="#46455B"/>
<path d="M190.025 115.846C190.981 113.236 192.222 110.739 193.726 108.402C194.044 107.943 194.325 107.46 194.569 106.958C195.082 105.821 195.134 104.535 195.405 103.313C196.16 99.893 198.625 96.9573 198.941 93.4808C199.053 92.2131 199.735 91.0507 200.16 89.8533C200.444 89.0421 200.767 88.1853 201.455 87.669C201.918 87.3608 202.466 87.2088 203.021 87.2354C203.576 87.2619 204.108 87.4656 204.539 87.8165C204.959 88.1804 205.29 88.6359 205.506 89.148C205.722 89.6601 205.818 90.2149 205.785 90.7698C205.787 91.2759 205.64 91.7715 205.364 92.1955C204.992 92.7117 204.388 92.9892 203.854 93.3298C202.477 94.2172 201.495 95.6004 201.111 97.1926C200.437 100.083 200.62 103.05 199.682 105.863C198.744 108.676 197.575 111.415 196.792 114.291C196.353 115.917 196.04 117.592 195.307 119.109C194.573 120.626 193.326 121.995 191.686 122.385C191.583 121.341 191.312 120.32 190.885 119.362C190.394 118.252 189.611 116.974 190.025 115.846Z" fill="#A0616A"/>
<path d="M172.358 119.852C172.222 117.8 171.693 115.794 170.799 113.942C170.448 113.24 170.054 112.537 170.012 111.733C170.034 111 170.2 110.278 170.5 109.609C171.295 107.207 171.923 104.754 172.379 102.266L173.348 97.5954C173.782 97.2017 174.165 96.7558 174.49 96.268C175.167 95.2976 175.565 94.1591 175.638 92.9776C175.67 92.3882 175.585 91.7983 175.386 91.2423C175.188 90.6864 174.881 90.1756 174.483 89.7399C174.305 89.5298 174.084 89.3604 173.835 89.2429C173.586 89.1253 173.315 89.0625 173.039 89.0586C172.801 89.0867 172.57 89.1636 172.362 89.2844C172.155 89.4052 171.974 89.5674 171.831 89.7609C171.409 90.3528 171.105 91.0205 170.936 91.7274C170.585 92.8863 170.233 94.0908 170.388 95.2917C170.528 96.2855 171.02 97.3636 170.518 98.2345C168.871 101.096 167.737 104.306 166.515 107.365C166.202 108.1 165.947 108.858 165.753 109.633C165.506 110.882 165.461 112.163 165.619 113.426C165.907 115.797 166.364 118.144 166.989 120.449C167.34 121.896 167.779 123.469 168.994 124.336C169.995 122.735 171.006 121.165 172.358 119.852Z" fill="#A0616A"/>
<path d="M179.209 120.256C182.539 120.256 185.239 117.557 185.239 114.227C185.239 110.897 182.539 108.197 179.209 108.197C175.879 108.197 173.18 110.897 173.18 114.227C173.18 117.557 175.879 120.256 179.209 120.256Z" fill="#A0616A"/>
<path d="M176.959 120.839C176.923 121.938 176.446 122.967 175.975 123.964C175.691 124.564 175.319 125.235 174.669 125.369C176.497 126.1 178.395 126.645 180.333 126.994C180.997 127.143 181.68 127.182 182.356 127.11C182.924 127.009 183.47 126.807 183.968 126.513C185.059 125.894 185.995 125.035 186.705 124.001C187.415 122.967 187.881 121.784 188.066 120.544C187.322 120.641 186.57 120.661 185.822 120.603C185.399 120.615 184.987 120.463 184.674 120.178C184.476 119.903 184.363 119.576 184.351 119.237C184.217 118.24 184.111 117.24 184.031 116.238C182.548 116.296 181.089 116.63 179.729 117.225C179.167 117.471 178.62 117.755 178.04 117.966C177.689 118.092 176.674 118.117 176.428 118.345C176.049 118.707 176.98 120.08 176.959 120.839Z" fill="#A0616A"/>
<path d="M179.982 124.21C179.834 123.429 179.445 122.715 178.869 122.167C178.293 121.62 177.559 121.267 176.772 121.159C176.14 121.085 175.473 121.159 174.886 120.923C173.886 120.491 173.464 119.231 172.495 118.736C171.526 118.24 170.269 118.7 169.552 119.529C168.836 120.358 168.534 121.485 168.316 122.539C167.979 124 167.868 125.504 167.99 126.998C168.006 127.273 168.079 127.54 168.204 127.785C168.405 128.066 168.648 128.315 168.924 128.522C169.3 128.869 169.597 129.292 169.796 129.763C169.994 130.235 170.088 130.743 170.072 131.254C170.084 132.216 170.27 133.168 170.62 134.064C171.459 136.55 172.302 139.04 173.032 141.561C173.192 142.027 173.279 142.515 173.292 143.008C173.275 143.71 172.941 144.413 173.113 145.097C173.228 145.413 173.323 145.736 173.398 146.063C173.403 146.317 173.37 146.571 173.299 146.815C172.839 148.788 171.519 153.332 171.747 155.344C174.742 154.242 179.262 153.588 182.436 153.237C183.31 153.137 184.188 153.085 185.067 153.083C187.174 153.083 189.382 153.48 191.349 152.707C193.172 152.005 194.685 150.312 196.645 150.305C196.95 149.157 196.072 145.526 195.563 144.451C193.565 140.219 192.778 135.517 193.287 130.865C193.47 129.193 192.803 127.508 193.031 125.84C193.064 125.449 193.172 125.068 193.351 124.719C193.443 124.546 193.577 124.398 193.741 124.29C193.904 124.181 194.093 124.115 194.288 124.098C194.055 121.483 193.543 118.9 192.761 116.393C192.476 115.501 191.964 114.469 191.029 114.409C190.187 114.353 189.565 115.112 188.958 115.705C188.33 116.3 187.582 116.752 186.763 117.029C186.427 117.103 186.114 117.256 185.85 117.475C185.499 117.844 185.499 118.444 185.207 118.879C184.701 119.659 183.409 119.733 183.1 120.604C183.035 120.86 182.989 121.12 182.963 121.383C182.82 121.896 182.532 122.357 182.134 122.711C181.552 123.381 180.813 123.897 179.982 124.21V124.21Z" fill="#2F2E41"/>
<path d="M183.42 107.346C183.471 107.148 183.466 106.938 183.404 106.743C183.342 106.547 183.225 106.373 183.068 106.24C182.883 106.153 182.693 106.077 182.5 106.012C182.236 105.833 182.013 105.601 181.843 105.331C181.349 104.774 180.674 104.409 179.937 104.301C179.2 104.193 178.448 104.349 177.815 104.741C176.828 105.394 176.312 106.553 175.469 107.385C175.037 107.817 174.521 108.154 174.086 108.586C173.223 109.504 172.661 110.663 172.474 111.908C172.294 113.147 172.243 114.402 172.323 115.651C172.312 116.03 172.367 116.408 172.484 116.768C172.61 117.063 172.784 117.336 172.997 117.576C174.067 118.974 175.502 120.051 177.144 120.687C178.795 121.27 180.723 121.2 182.198 120.255C182.345 120.173 182.467 120.052 182.549 119.904C182.619 119.685 182.619 119.449 182.549 119.23C182.373 118.355 182.457 117.448 182.791 116.621C183.084 116.045 183.344 115.453 183.571 114.847C183.715 114.154 183.734 113.44 183.627 112.74C183.455 110.949 183.142 109.144 183.42 107.346Z" fill="#46455B"/>
<path opacity="0.1" d="M286.384 12.8531C286.688 12.4204 286.856 11.9068 286.865 11.3782C286.865 8.17557 280.341 5.58398 272.292 5.58398C264.243 5.58398 257.719 8.17557 257.719 11.3782C257.725 11.9737 257.926 12.5508 258.291 13.0216C249.329 14.0224 243.293 15.8977 243.293 18.0503C243.293 21.2494 256.637 23.8445 273.142 23.8445C289.647 23.8445 302.991 21.2494 302.991 18.0503C303.001 15.7853 296.217 13.8012 286.384 12.8531Z" fill="#FFD32A"/>
<path opacity="0.1" d="M107.642 19.1734C107.946 18.7407 108.114 18.2271 108.123 17.6985C108.123 14.4959 101.599 11.9043 93.5501 11.9043C85.5014 11.9043 78.9768 14.4959 78.9768 17.6985C78.9914 18.2973 79.2024 18.8748 79.5773 19.3419C70.6156 20.3428 64.5791 22.218 64.5791 24.3706C64.5791 27.5697 77.9409 30.1648 94.428 30.1648C110.915 30.1648 124.277 27.5697 124.277 24.3706C124.259 22.1056 117.475 20.1215 107.642 19.1734Z" fill="#FFD32A"/>
<path opacity="0.1" d="M210.091 14.3057C210.909 13.8316 212.015 14.2846 212.577 15.0502C213.139 15.8157 213.279 16.806 213.437 17.726C213.75 19.8049 213.978 22.1893 212.577 23.752C214.867 16.8095 221.451 11.4929 228.731 10.7168" stroke="#FFD32A" stroke-width="3" stroke-miterlimit="10"/>
<path opacity="0.1" d="M92.9668 49.7665C93.4935 49.461 94.2029 49.7665 94.5646 50.2441C94.8867 50.764 95.0771 51.3546 95.1194 51.9648C95.3196 53.3027 95.4706 54.8338 94.5681 55.8276C95.3382 53.5982 96.7195 51.6302 98.5543 50.1481C100.389 48.666 102.604 47.7294 104.945 47.4453" stroke="#FFD32A" stroke-width="3" stroke-miterlimit="10"/>
<path opacity="0.1" d="M250.991 60.3017C251.517 59.9962 252.227 60.3017 252.589 60.7793C252.911 61.2992 253.101 61.8898 253.143 62.5C253.344 63.8379 253.495 65.369 252.592 66.3628C253.362 64.1334 254.743 62.1654 256.578 60.6833C258.413 59.2012 260.627 58.2646 262.969 57.9805" stroke="#FFD32A" stroke-width="3" stroke-miterlimit="10"/>
<path opacity="0.1" d="M238.036 178.374V169.841L241.969 173.774L242.952 172.755L237.334 167.137L231.715 172.755L232.699 173.735L236.632 169.841V178.374H238.036Z" fill="#FFD32A"/>
<path opacity="0.1" d="M153.055 168.466V159.932L156.988 163.865L157.971 162.847L152.353 157.229L146.734 162.847L147.717 163.827L151.65 159.932V168.466H153.055Z" fill="#FFD32A"/>
<defs>
<linearGradient id="paint0_linear" x1="131.005" y1="95.2173" x2="131.005" y2="-0.000750958" gradientUnits="userSpaceOnUse">
<stop stop-color="#808080" stop-opacity="0.25"/>
<stop offset="0.54" stop-color="#808080" stop-opacity="0.12"/>
<stop offset="1" stop-color="#808080" stop-opacity="0.1"/>
</linearGradient>
<linearGradient id="paint1_linear" x1="27222.4" y1="59409.7" x2="32403.5" y2="58874.3" gradientUnits="userSpaceOnUse">
<stop stop-color="#808080" stop-opacity="0.25"/>
<stop offset="0.54" stop-color="#808080" stop-opacity="0.12"/>
<stop offset="1" stop-color="#808080" stop-opacity="0.1"/>
</linearGradient>
</defs>
</svg>
